<svg width="162" height="23" viewBox="0 0 162 23" fill="none" xmlns="http://www.w3.org/2000/svg" ><path fill-rule="evenodd" clip-rule="evenodd" d="M43.1785 13.7172C36.2186 15.7048 28.183 17.6828 20.4527 18.1767C13.8455 18.5982 7.46356 17.9435 2.23983 15.1577C1.50347 14.7654 0.581354 15.0351 0.183125 15.761C-0.215712 16.4863 0.0586752 17.3946 0.795035 17.7874C6.49348 20.8256 13.4418 21.6203 20.6488 21.1598C28.5181 20.6576 36.6988 18.6664 43.7983 16.6501C44.6221 18.2939 46.3279 19.8264 49.3329 20.9571C53.9483 22.6941 60.2502 22.6726 66.8889 21.6938C76.5175 20.2749 86.8751 16.8911 93.5345 14.4868C93.8077 14.3887 94.2144 14.2326 94.7122 14.027C94.8639 14.357 95.0339 14.6823 95.2221 15.0016C96.8551 17.7844 99.7447 20.0345 102.689 20.8381C121.362 25.9338 143.155 19.8282 160.9 14.8593C161.701 14.6339 162.168 13.8063 161.944 13.0129C161.713 12.2194 160.875 11.7584 160.068 11.9838C142.821 16.814 121.647 22.9082 103.496 17.9566C101.262 17.3467 99.089 15.6175 97.8506 13.5055C97.711 13.27 97.5896 13.029 97.4743 12.7844C99.9207 11.5903 102.798 9.92566 104.346 8.14379C105.937 6.31707 106.331 4.36718 104.947 2.52551C103.757 0.951124 101.954 0.817182 100.079 1.63338C98.057 2.50757 95.9748 4.55131 95.301 5.51041C94.0383 7.30185 93.6377 9.2452 93.8684 11.1401C93.2734 11.3876 92.7902 11.5718 92.4922 11.6794C85.9785 14.0305 75.8546 17.3491 66.4397 18.737C60.3819 19.6303 54.6276 19.7493 50.4158 18.1647C48.6196 17.4884 47.4327 16.6992 46.7887 15.7831C48.0598 15.4088 49.2855 15.0405 50.4565 14.6889C52.7724 13.9935 57.5943 12.8424 61.0393 10.7909C63.779 9.1597 65.6366 6.94073 65.5285 4.15909C65.4733 2.73 64.6337 1.77627 63.2976 1.2417C61.301 0.443449 57.848 0.829713 56.5623 1.09879C52.6626 1.91319 47.4577 5.28441 44.8825 9.08315C43.8548 10.5989 43.2435 12.1847 43.1785 13.7172ZM46.3819 12.7832C47.4837 12.4567 48.5485 12.1362 49.5714 11.8289C51.7332 11.1795 56.2521 10.1481 59.4689 8.23226C61.1723 7.21814 62.563 6.00314 62.4957 4.27329C62.4902 4.13875 62.3548 4.10049 62.2352 4.04548C62.0501 3.96117 61.8382 3.90315 61.6124 3.85771C60.0844 3.55037 58.032 3.84753 57.1918 4.02333C53.9198 4.70678 49.5672 7.55599 47.4066 10.7436C46.9501 11.4169 46.5865 12.1028 46.3819 12.7832ZM96.8672 9.76361C98.2938 9.0407 99.7872 8.16649 100.965 7.21516C101.59 6.7099 102.118 6.1903 102.452 5.65096C102.731 5.20489 102.841 4.74803 102.507 4.30675C102.373 4.12797 102.173 4.1244 101.967 4.15789C101.748 4.19376 101.523 4.27028 101.299 4.36894C99.8175 5.01113 98.2877 6.51138 97.796 7.21516C97.2193 8.03135 96.934 8.8948 96.8672 9.76361Z" fill="#B9D0F4"></path></svg>