<svg width="42" height="49" viewBox="0 0 42 49" fill="none" xmlns="http://www.w3.org/2000/svg">
<path fill-rule="evenodd" clip-rule="evenodd" d="M27.0767 3.86703C31.1446 4.76225 35.3688 5.09016 39.4648 5.37769C40.3469 5.43663 41.1255 4.78306 41.1393 3.92395C41.2157 3.06065 40.5451 2.31329 39.7256 2.25078C35.7558 1.97552 31.6593 1.67234 27.7815 0.808326C26.9548 0.620111 26.1061 1.15281 25.9032 1.9976C25.7002 2.84176 26.25 3.67819 27.0767 3.86703Z" fill="#BCB7DF"/>
<path fill-rule="evenodd" clip-rule="evenodd" d="M14.5973 20.9526C21.4154 27.1593 28.9987 32.4735 35.7017 38.8637C36.3006 39.462 37.3035 39.4388 37.8956 38.8146C38.4877 38.1899 38.4936 37.1957 37.8321 36.6009C31.128 30.1914 23.5437 24.8584 16.7245 18.6323C16.0638 18.0525 15.0626 18.1008 14.4714 18.7418C13.9428 19.3786 13.9367 20.3728 14.5973 20.9526Z" fill="#BCB7DF"/>
<path fill-rule="evenodd" clip-rule="evenodd" d="M5.21194 46.4549C4.81001 42.7031 4.40845 38.9514 4.00648 35.199C3.95741 34.3372 3.16842 33.7145 2.29495 33.8063C1.42152 33.8987 0.838047 34.6679 0.887157 35.5303C1.28944 39.2883 1.69133 43.0457 2.09358 46.8031C2.20522 47.6613 2.99371 48.2796 3.8669 48.1829C4.67752 48.0896 5.32354 47.3125 5.21194 46.4549Z" fill="#BCB7DF"/>
</svg>
