<svg width="353" height="65" viewBox="0 0 353 65" fill="none" xmlns="http://www.w3.org/2000/svg">
<g clip-path="url(#clip0_523_5622)">
<path d="M20.8635 52.1059C20.3186 51.5679 19.6101 51.5679 19.0652 52.1059L18.3385 52.8232C16.8127 54.3296 14.651 55.0469 12.4893 54.6882L6.7128 53.7916L5.71372 48.0171C5.35041 45.8831 5.98619 43.6594 7.6029 42.0634L8.23868 41.4357C8.78364 40.8977 8.78364 40.1983 8.23868 39.6603C7.69373 39.1223 6.98528 39.1223 6.44033 39.6603L5.80454 40.288C3.64288 42.422 2.73462 45.4527 3.18875 48.3937L4.35132 55.0648C4.44215 55.3338 4.53298 55.6028 4.71463 55.7821C4.89628 55.9615 5.16876 56.0511 5.44124 56.1408L12.1079 57.2168C15.087 57.6651 18.0479 56.6788 20.1369 54.6344L20.8635 53.9171C21.4085 53.3432 21.4085 52.6259 20.8635 52.1059Z" fill="#333029"/>
<path d="M4.98712 55.4943C4.87813 55.3867 4.80547 55.1715 4.71464 54.9563L3.55206 48.3032C3.1161 45.416 4.04253 42.5108 6.05887 40.5202L6.69465 39.8926C7.09428 39.498 7.58474 39.498 7.98438 39.8926C8.38401 40.2871 8.38401 40.7713 7.98438 41.1658L7.3486 41.7935C5.71373 43.4075 4.96895 45.7567 5.35042 48.07L6.38584 54.1135L12.4167 55.046C14.651 55.4226 16.958 54.6873 18.5929 53.0734L19.3195 52.356C19.7191 51.9615 20.2096 51.9615 20.6092 52.356C21.0088 52.7506 21.0088 53.2348 20.6092 53.6293L19.8826 54.3466C17.8844 56.3192 14.9962 57.2518 12.1805 56.8214L5.55024 55.7633C5.31409 55.6737 5.09611 55.6019 4.98712 55.4943Z" fill="#333029"/>
<path d="M2.11679 32.0035C3.27937 33.8686 5.02323 35.3929 7.09407 36.3971C7.69352 36.6841 8.42013 36.2716 8.45646 35.6081C8.45646 35.5543 8.45646 35.5184 8.47462 35.4646C8.51095 35.106 8.31114 34.7652 7.98416 34.6038C6.31296 33.7789 4.91424 32.5415 3.98781 31.0531C2.91606 29.3494 2.51643 27.4306 2.82524 25.5297V25.5118C3.2612 23.3239 4.55093 21.3334 6.33113 20.0601C8.47462 18.4103 11.2902 17.7109 14.2693 18.1234C16.2312 18.3924 18.6108 19.1814 21.3719 20.4905C21.8624 20.7236 22.4618 20.4905 22.6617 19.9884C22.6617 19.9705 22.6617 19.9705 22.6798 19.9525C22.8615 19.5221 22.6617 19.0379 22.2439 18.8407C19.2103 17.406 16.6126 16.5273 14.4691 16.2404C11.0723 15.81 7.5482 16.617 4.84158 18.4462C2.51643 20.0243 0.972384 22.4811 0.590914 25.1531C0.282105 27.5741 0.790731 29.8695 2.11679 32.0035Z" fill="#333029"/>
<path d="M28.4388 57.9877C26.5496 56.84 25.0056 55.1185 23.9883 53.0741C23.6977 52.4823 24.1155 51.765 24.7876 51.7291C24.8421 51.7291 24.8784 51.7291 24.9329 51.7112C25.2962 51.6753 25.6414 51.8726 25.8048 52.1954C26.6405 53.8452 27.8939 55.226 29.4016 56.1406C31.1273 57.1987 33.0709 57.5932 34.9965 57.2884H35.0146C37.2308 56.858 39.2471 55.5847 40.5369 53.8273C42.2081 51.7112 42.9165 48.9315 42.4987 45.9905C42.2262 44.0537 41.4269 41.7045 40.1009 38.9787C39.8647 38.4945 40.1009 37.9027 40.6095 37.7054C40.6277 37.7054 40.6277 37.7054 40.6458 37.6875C41.0818 37.5082 41.5723 37.7054 41.7721 38.1179C43.2071 41.0769 44.0972 43.6413 44.3879 45.7574C44.8238 49.1109 44.0064 52.5899 42.1536 55.2619C40.555 57.5573 38.0664 59.0817 35.3598 59.4583C32.9256 59.799 30.6005 59.2969 28.4388 57.9877Z" fill="#333029"/>
<path d="M59.3733 19.504C59.9953 19.504 60.4995 19.0062 60.4995 18.3921C60.4995 17.7781 59.9953 17.2803 59.3733 17.2803C58.7513 17.2803 58.2471 17.7781 58.2471 18.3921C58.2471 19.0062 58.7513 19.504 59.3733 19.504Z" fill="#333029"/>
<path d="M42.3709 2.71784C42.9929 2.71784 43.4971 2.22005 43.4971 1.60599C43.4971 0.991932 42.9929 0.494141 42.3709 0.494141C41.7489 0.494141 41.2446 0.991932 41.2446 1.60599C41.2446 2.22005 41.7489 2.71784 42.3709 2.71784Z" fill="#333029"/>
<path d="M39.3009 9.63963C41.7532 9.63963 44.1328 10.357 46.1492 11.7199C46.349 11.8454 46.5488 11.9889 46.7668 12.1682C47.1483 12.4551 47.5116 12.7779 47.8567 13.1186C48.4017 13.6566 48.9103 14.2664 49.3463 14.894C49.4734 15.0733 49.6006 15.2885 49.7459 15.5217C50.9993 17.6378 51.5624 20.0767 51.3626 22.5335C51.1628 25.0083 50.2 27.3037 48.6015 29.2046C48.3653 29.4736 48.111 29.7426 47.8567 30.0116C47.0756 30.7827 46.2037 31.4283 45.2591 31.9663C45.1138 32.0559 44.9503 32.1277 44.7686 32.2173C43.8785 32.6657 42.9158 33.0064 41.9167 33.2216C41.2446 33.3651 40.5725 33.4547 39.8822 33.4906L27.2029 21.0092C27.2392 20.3457 27.33 19.7001 27.4572 19.0545C27.7115 17.9426 28.1111 16.8666 28.6561 15.8803C29.201 14.8761 29.9095 13.9615 30.7269 13.1545C31.2355 12.6524 31.7987 12.1861 32.3981 11.7737C34.4326 10.3749 36.8304 9.63963 39.3009 9.63963ZM39.3009 7.66699C36.4853 7.66699 33.6697 8.49191 31.2719 10.1418C30.5816 10.608 29.9458 11.146 29.3282 11.7557C28.3473 12.7241 27.548 13.8001 26.9122 14.9299C26.2583 16.1135 25.8041 17.3508 25.5135 18.642C25.2773 19.6821 25.1684 20.7581 25.1865 21.8162L39.0829 35.535C39.1556 35.535 39.2101 35.535 39.2827 35.535C40.3182 35.535 41.3354 35.4274 42.3527 35.2122C43.4971 34.9611 44.6051 34.5666 45.6769 34.0465C45.8767 33.9569 46.0584 33.8493 46.2582 33.7417C47.3481 33.1319 48.3653 32.3787 49.2736 31.4642C49.5824 31.1593 49.8731 30.8544 50.1455 30.5316C52.0529 28.2721 53.1246 25.5462 53.3608 22.7666C53.5969 19.9691 52.9612 17.0998 51.4898 14.5892C51.3444 14.3381 51.181 14.087 51.0175 13.836C50.527 13.1007 49.9457 12.4013 49.2918 11.7557C48.8921 11.3612 48.4562 10.9846 48.0202 10.6439C47.7841 10.4645 47.5297 10.2852 47.2936 10.1059C44.8776 8.49191 42.0983 7.66699 39.3009 7.66699Z" fill="#333029"/>
<path d="M42.5 7.86211L42.5 4.91211" stroke="#333029" stroke-width="2" stroke-miterlimit="10" stroke-linecap="round" stroke-linejoin="round"/>
<path d="M52.9995 18.1875L55.9995 18.1875" stroke="#333029" stroke-width="2" stroke-miterlimit="10" stroke-linecap="round" stroke-linejoin="round"/>
<path d="M30.5269 47.622L31.2172 47.6041C32.4887 47.5682 33.7058 47.0661 34.5959 46.1694C35.5223 45.2549 36.031 44.0533 36.0491 42.7622L36.0673 41.9014C36.0673 41.9014 35.9583 40.5743 34.7231 39.3369C33.4878 38.1175 21.1718 25.9589 21.1718 25.9589C21.1718 25.9589 20.318 24.9367 18.5742 24.6318L17.7022 24.6498C16.3943 24.6677 15.1773 25.1698 14.2509 26.0844C13.3426 26.9811 12.834 28.1646 12.7976 29.4379L12.7795 30.1194L12.0892 30.1373C10.7995 30.1732 9.60055 30.6753 8.69229 31.5719C7.8022 32.4506 7.31173 33.5984 7.23907 34.7461C7.16641 35.9297 7.52972 37.1312 8.31082 38.0996C8.41981 38.243 8.54697 38.3865 8.69229 38.512L22.0074 51.657C22.1164 51.7646 22.2436 51.8722 22.3707 51.9798C23.3516 52.7688 24.5687 53.1454 25.7676 53.0916C26.9665 53.0378 28.1472 52.5536 29.0555 51.657C29.9638 50.7603 30.4724 49.5767 30.5087 48.3035L30.5269 47.622ZM25.6586 51.0114C24.8775 51.0472 24.0964 50.7603 23.5151 50.1864L10.2 37.0415C9.58239 36.4318 9.30991 35.6248 9.36441 34.8178C9.4189 34.1722 9.69138 33.5266 10.2 33.0245C11.3263 31.9127 13.1428 31.9127 14.2509 33.0245L27.566 46.1694C28.6922 47.2813 28.6922 49.0746 27.566 50.1864C27.0392 50.7065 26.3489 50.9755 25.6586 51.0114ZM29.0555 44.6989L15.7404 31.554C14.6142 30.4421 14.6142 28.6488 15.7404 27.5549C16.8666 26.4431 18.6832 26.4431 19.7912 27.5549L33.1064 40.6999C34.2326 41.8117 34.2326 43.605 33.1064 44.7169C31.9983 45.8108 30.1636 45.8108 29.0555 44.6989Z" fill="#FAC751"/>
<path d="M36.1042 42.7621L36.1224 42.0806L36.8127 42.0627C37.6483 42.0448 38.4657 41.8116 39.1742 41.3992C39.5375 41.184 39.8826 40.9329 40.1914 40.6281C40.3549 40.4667 40.5002 40.3053 40.6274 40.1259C41.136 39.4624 41.463 38.7092 41.5901 37.8843C41.6265 37.6691 41.6446 37.4539 41.6446 37.2208L41.6628 36.36C41.6628 36.36 41.5538 35.033 40.3186 33.7956L40.1914 33.67C38.3749 31.8767 26.7855 20.4354 26.7855 20.4354C26.7855 20.4354 26.622 20.2382 26.2768 19.9871C25.859 19.6643 25.1506 19.2877 24.1878 19.1084L23.3159 19.1263C23.0798 19.1263 22.8436 19.1443 22.6075 19.1801C21.8264 19.3057 21.0816 19.5926 20.4458 20.0588C20.246 20.2023 20.0462 20.3637 19.8645 20.561C19.1924 21.2245 18.7383 22.0674 18.5385 22.964C18.4658 23.2689 18.4295 23.5917 18.4295 23.8965L18.4113 24.578L17.721 24.5959C17.3759 24.5959 17.0307 24.6497 16.6856 24.7214C15.85 24.9187 15.0689 25.3312 14.4331 25.905C14.3968 25.9409 14.3605 25.9768 14.3241 26.0126C13.434 26.8913 12.9436 28.0391 12.8709 29.1868C12.7982 30.3704 13.1616 31.5719 13.9427 32.5403C14.0516 32.6837 14.1788 32.8272 14.3241 32.9527L27.6392 46.0976C27.7482 46.2052 27.8754 46.3128 28.0025 46.4204C28.9835 47.2095 30.2005 47.5861 31.3994 47.5323C32.5257 47.4785 33.6338 47.0481 34.5057 46.259C34.542 46.2232 34.5784 46.1873 34.6147 46.1514C34.6329 46.1335 34.651 46.1156 34.6692 46.0976C35.4685 45.3086 35.9589 44.3043 36.0861 43.2104C36.1042 43.067 36.1042 42.9235 36.1042 42.7621ZM25.4049 22.0136L38.72 35.1585C39.8463 36.2703 39.8463 38.0636 38.72 39.1755C37.5938 40.2873 35.7773 40.2873 34.651 39.1755L21.3359 26.0306C20.2097 24.9187 20.2097 23.1254 21.3359 22.0315C22.4621 20.9196 24.2787 20.9196 25.4049 22.0136ZM33.107 44.6989C33.0888 44.7168 33.0706 44.7347 33.0525 44.7347C32.5438 45.201 31.8899 45.4341 31.236 45.47C30.4548 45.5059 29.6737 45.2189 29.0925 44.6451L15.7773 31.5001C15.1597 30.8904 14.8873 30.0834 14.9417 29.2764C14.9962 28.6309 15.2687 27.9853 15.7773 27.4831C15.7955 27.4652 15.8137 27.4473 15.8318 27.4473C16.2133 27.0886 16.6674 26.8555 17.1579 26.7299C17.9753 26.5506 18.8473 26.712 19.5375 27.2321C19.6465 27.3038 19.7374 27.3935 19.8282 27.4831L33.1433 40.6281C34.2695 41.7399 34.2695 43.5332 33.1433 44.6451C33.1433 44.663 33.1251 44.6809 33.107 44.6989Z" fill="#FAC751"/>
</g>
<path d="M63.2279 50.1123H70.3779C71.1279 50.1123 71.1279 49.0123 70.3779 48.6123C69.0779 47.9123 70.3279 44.0623 71.9279 39.8623H85.0779C86.6779 44.2623 87.8279 48.0123 86.6779 48.6123C85.9279 49.0123 85.9279 50.1123 86.6779 50.1123H98.8279C99.5779 50.1123 99.6279 49.0123 98.8279 48.6123C96.3279 47.3623 93.3279 39.3623 90.8779 32.6123C89.6279 29.2123 86.2279 19.8623 84.9779 16.2123C84.7779 15.5623 84.1779 15.1123 83.5279 15.1123H75.4779C74.7279 15.1123 74.5279 16.2623 75.4779 16.6123C77.9279 17.5123 75.0779 24.8623 71.8779 33.5123C69.7279 39.3623 66.2779 47.1123 63.2279 48.6123C62.4279 49.0123 62.4779 50.1123 63.2279 50.1123ZM74.3779 33.5123C75.7279 29.7123 77.0279 25.5123 78.6279 22.1623C80.4279 27.2623 82.2279 32.3123 84.1279 37.3623H72.9279C73.4279 36.0123 73.9779 34.7123 74.3779 33.5123ZM101.709 16.6123C104.009 17.9623 103.709 25.8623 103.709 32.6123C103.709 39.3623 103.809 47.3623 101.709 48.6123C101.059 49.0123 100.959 50.1123 101.709 50.1123H114.409C115.159 50.1123 115.159 49.0623 114.409 48.6123C112.709 47.5123 112.309 42.6123 112.259 37.3123H116.159C121.759 37.3123 130.459 34.0623 130.459 25.5123C130.459 16.9623 123.159 15.1123 117.009 15.1123H101.709C100.959 15.1123 101.059 16.2123 101.709 16.6123ZM117.009 16.6123C120.159 16.6123 121.959 20.0123 121.959 25.2623C121.959 32.5123 119.159 35.6123 112.209 35.8123C112.209 34.7123 112.209 33.6623 112.209 32.6123C112.209 25.8623 111.309 16.6123 117.009 16.6123ZM132.52 50.1123H145.22C145.97 50.1123 145.87 49.0123 145.22 48.6123C142.87 47.2123 143.12 39.3623 143.12 32.6123C143.12 25.8623 143.02 17.9623 145.22 16.6123C145.92 16.2123 145.97 15.1123 145.22 15.1123H132.52C131.77 15.1123 131.87 16.2123 132.52 16.6123C134.87 18.0123 134.62 25.8623 134.62 32.6123C134.62 39.3623 134.57 47.3623 132.52 48.6123C131.87 49.0123 131.77 50.1123 132.52 50.1123Z" fill="#FAC751"/>
<path d="M150.689 32.2998C150.689 43.2998 157.939 50.7998 167.939 50.7998C175.839 50.7998 181.639 45.4998 183.189 42.2998C183.739 41.1998 183.139 40.4498 182.439 40.4498C182.089 40.4498 181.689 40.6498 181.389 41.0998C179.639 43.6998 175.889 46.4998 171.739 46.4998C162.989 46.4998 156.789 31.3498 156.789 24.5998C156.789 19.2998 159.289 15.6998 163.639 15.6998C169.389 15.6998 171.389 20.7498 173.989 24.7998C174.789 25.9998 175.939 26.5498 177.189 26.5498C180.189 26.5498 183.389 23.2998 180.839 19.2998C178.539 15.6498 173.589 13.7998 167.939 13.7998C157.939 13.7998 150.689 21.2998 150.689 32.2998ZM199.187 50.7998C206.587 50.7998 212.637 44.6498 212.637 37.2998C212.637 29.8998 206.537 23.8498 199.187 23.8498C191.787 23.8498 185.687 29.8998 185.687 37.2998C185.687 44.6498 191.787 50.7998 199.187 50.7998ZM193.987 26.4998C194.387 26.2998 194.837 26.1998 195.287 26.1998C198.137 26.1998 201.337 30.2998 203.637 35.1498C206.287 40.6998 207.487 46.5998 204.387 48.0998C203.987 48.2998 203.537 48.3998 203.087 48.3998C200.187 48.3998 196.987 44.2998 194.637 39.4498C192.037 33.8498 190.887 27.9998 193.987 26.4998ZM230.713 23.8498C227.863 23.8498 226.163 25.0998 225.163 26.5498V25.2998C225.163 24.4498 224.563 23.8998 223.713 23.9498L214.563 24.7498C213.813 24.7998 213.913 25.8498 214.563 26.2498C216.513 27.3998 216.663 30.6498 216.663 33.2498V40.0498C216.663 42.5998 216.613 47.0498 214.563 48.2998C213.913 48.6998 213.813 49.7998 214.563 49.7998H227.263C228.013 49.7998 227.913 48.6998 227.263 48.2998C224.913 46.8998 225.163 40.4998 225.163 36.2498V31.1998C225.213 29.6498 225.763 25.2998 230.013 25.2998C235.113 25.2998 234.013 34.7498 234.013 37.8498C234.013 40.4998 233.963 47.0498 231.913 48.2998C231.263 48.6998 231.163 49.7998 231.913 49.7998H244.613C245.363 49.7998 245.263 48.6998 244.613 48.2998C242.263 46.8998 242.513 40.4998 242.513 36.2498C242.513 26.3998 236.063 23.8498 230.713 23.8498ZM264.014 23.8498C261.164 23.8498 259.464 25.0998 258.464 26.5498V25.2998C258.464 24.4498 257.864 23.8998 257.014 23.9498L247.864 24.7498C247.114 24.7998 247.214 25.8498 247.864 26.2498C249.814 27.3998 249.964 30.6498 249.964 33.2498V40.0498C249.964 42.5998 249.914 47.0498 247.864 48.2998C247.214 48.6998 247.114 49.7998 247.864 49.7998H260.564C261.314 49.7998 261.214 48.6998 260.564 48.2998C258.214 46.8998 258.464 40.4998 258.464 36.2498V31.1998C258.514 29.6498 259.064 25.2998 263.314 25.2998C268.414 25.2998 267.314 34.7498 267.314 37.8498C267.314 40.4998 267.264 47.0498 265.214 48.2998C264.564 48.6998 264.464 49.7998 265.214 49.7998H277.914C278.664 49.7998 278.564 48.6998 277.914 48.2998C275.564 46.8998 275.814 40.4998 275.814 36.2498C275.814 26.3998 269.364 23.8498 264.014 23.8498ZM293.915 50.7998C299.865 50.7998 304.215 46.5998 305.565 43.7498C305.965 42.8498 305.615 42.2998 305.065 42.2998C304.715 42.2998 304.365 42.4998 304.065 42.9498C303.365 43.9998 301.165 46.6998 297.265 46.6998C292.415 46.6998 289.215 41.0998 287.715 36.0498H304.165C305.365 36.0498 306.015 35.1998 305.615 34.2498C304.665 30.8498 301.615 23.8498 293.165 23.8498C286.565 23.8498 280.365 29.3498 280.365 37.3998C280.365 45.2998 287.015 50.7998 293.915 50.7998ZM287.315 34.5498C286.965 32.9498 286.765 31.4998 286.765 30.3998C286.765 27.6498 288.415 25.8498 291.015 25.8498C295.165 25.8498 297.815 31.6998 298.865 34.5498H287.315ZM308.247 37.3998C308.247 45.3998 314.997 50.7998 321.597 50.7998C327.797 50.7998 332.097 46.5998 333.447 43.7498C333.847 42.8498 333.497 42.2998 332.947 42.2998C332.597 42.2998 332.247 42.4998 331.947 42.9498C331.247 43.9998 329.147 46.6998 325.047 46.6998C318.797 46.6998 314.647 36.4498 314.647 30.3998C314.647 27.3998 316.147 26.1998 317.797 26.1998C320.097 26.1998 322.747 28.9498 324.547 32.2998C325.497 34.0998 327.047 34.7998 328.497 34.7998C331.197 34.7998 333.797 32.2998 332.347 29.4498C330.197 25.1498 326.297 23.8498 321.597 23.8498C314.647 23.8498 308.247 29.3498 308.247 37.3998ZM335.156 26.2998H336.306V42.8498C336.306 47.4498 340.356 49.7998 345.406 49.7998C347.656 49.7998 347.556 48.6998 346.906 48.2998C344.556 46.8998 344.806 40.4998 344.806 36.2498V26.2998H349.106C349.556 26.2998 349.856 26.0498 349.856 25.5498C349.856 25.0998 349.556 24.7998 349.106 24.7998H344.806V17.4998C344.806 17.0498 344.456 16.7998 344.056 16.7998C343.706 16.7998 343.306 17.0498 343.306 17.4998C343.306 22.4498 339.906 24.7998 336.306 24.7998H335.156C334.706 24.7998 334.406 25.0998 334.406 25.5498C334.406 25.9998 334.706 26.2998 335.156 26.2998Z" fill="#333029"/>
<defs>
<clipPath id="clip0_523_5622">
<rect width="60" height="59" fill="white" transform="translate(0.5 0.487305)"/>
</clipPath>
</defs>
</svg>
