<svg width="183" height="204" viewBox="0 0 183 204" fill="none" xmlns="http://www.w3.org/2000/svg">
<path d="M175.119 184.313C175.058 184.221 174.97 184.15 174.884 184.079L150.614 147.818C150.616 147.815 150.619 147.813 150.621 147.81C172.877 125.442 179.411 93.1877 170.27 64.99L158.674 71.3463C165.279 94.4671 159.547 120.427 141.46 138.605C114.96 165.239 71.8434 165.236 45.3437 138.605C44.2403 137.496 43.2002 136.349 42.1904 135.187L30.5691 141.556C32.3153 143.715 34.1856 145.804 36.1823 147.813C59.5616 171.31 93.8004 177.377 122.806 166.053L147.574 203.059L147.589 203.049C148.996 204.809 156.105 202.181 163.627 197.092C171.247 191.933 176.392 186.213 175.119 184.313Z" fill="url(#paint0_linear_6_47)"/>
<path d="M165.535 32.916L158.426 25.5168L147.038 30.8608C146.266 30.2173 145.491 29.5789 144.697 28.9634L147.47 16.6857L138.694 11.3951L129.092 19.5141C128.181 19.0944 127.257 18.6951 126.326 18.3084L125.83 5.72553L115.985 2.90728L108.813 13.2519C107.826 13.0865 106.829 12.9492 105.832 12.8195L102.101 0.788507L91.8667 0.635895L87.6074 12.5117C87.1848 12.5524 86.7647 12.6058 86.3421 12.6516L79.8532 1.85934L69.8794 4.16888L68.571 16.6958C67.6169 17.0316 66.6754 17.3928 65.7365 17.7641L56.7017 9.05503L47.6668 13.8878L49.6459 26.3638C48.8209 26.9336 48.0034 27.511 47.2012 28.1087L36.205 22.0449L28.7291 29.0702L33.8564 40.5848C33.2035 41.3504 32.5784 42.1364 31.9533 42.9249L19.7676 39.9387L14.3644 48.6758L22.2908 58.4608C21.858 59.3714 21.4329 60.2871 21.033 61.2155L8.51834 61.5105L5.55734 71.3566L15.7437 78.738C15.564 79.7249 15.4071 80.7194 15.2628 81.7165L3.22903 85.2749L2.91016 95.561L14.6529 100.03C14.7314 101.037 14.8427 102.037 14.9592 103.034L4.25906 109.612L6.61014 119.623L19.0894 120.872L28.4988 115.869C25.6036 107.994 24.0547 99.4729 24.2015 90.5731C24.8367 52.0231 56.4461 21.2895 94.8049 21.9304C117.071 22.3018 136.682 33.1882 149.118 49.7797L159.681 44.0618L165.535 32.916Z" fill="url(#paint1_radial_6_47)"/>
<path d="M104.131 60.9229L92.6689 108.538V123.324H99.2591L111.961 75.7085H113.396V126.203H126.576V60.9229H104.131Z" fill="#B9B9B9"/>
<path d="M94.6454 107.439L81.2044 60.9229H58.759V126.203H71.9418V75.7085H73.3742L86.0762 123.324H92.6688H99.259L94.6454 107.439Z" fill="#302E80"/>
<path d="M147.338 172.348C151.547 169.499 155.237 166.406 157.727 163.636C158.497 162.779 159.114 161.983 159.605 161.248L158.517 159.62C158.097 160.36 157.434 161.299 156.409 162.436C154.012 165.101 150.439 168.093 146.346 170.863C142.254 173.63 138.149 175.835 134.791 177.064C132.928 177.745 131.66 177.992 130.825 178.03L131.939 179.694C132.933 179.533 134.077 179.226 135.401 178.742C138.888 177.468 143.13 175.197 147.338 172.348Z" fill="white"/>
<path d="M142.685 164.974C146.896 162.123 150.588 159.027 153.081 156.258C153.853 155.4 154.321 154.828 154.809 154.093L153.704 152.442C153.283 153.182 152.782 153.917 151.757 155.057C149.358 157.725 145.782 160.719 141.687 163.489C137.593 166.259 133.485 168.464 130.124 169.693C128.262 170.377 126.733 170.636 125.898 170.677L127.072 172.429C128.067 172.269 129.413 171.86 130.737 171.376C134.229 170.094 138.473 167.823 142.685 164.974Z" fill="white"/>
<defs>
<linearGradient id="paint0_linear_6_47" x1="77.7296" y1="189.571" x2="186.52" y2="81.3266" gradientUnits="userSpaceOnUse">
<stop offset="0.0178" stop-color="#4093D0"/>
<stop offset="1" stop-color="#312782"/>
</linearGradient>
<radialGradient id="paint1_radial_6_47" cx="0" cy="0" r="1" gradientUnits="userSpaceOnUse" gradientTransform="translate(84.2746 61.2293) rotate(0.955918) scale(71.3359 71.6958)">
<stop stop-color="#9C9B9B"/>
<stop offset="0.0622" stop-color="#9F9E9E"/>
<stop offset="0.1166" stop-color="#AAA9A9"/>
<stop offset="0.1681" stop-color="#BCBBBB"/>
<stop offset="0.2178" stop-color="#D5D4D4"/>
<stop offset="0.2659" stop-color="#F5F5F5"/>
<stop offset="0.2792" stop-color="white"/>
<stop offset="0.3692" stop-color="#EFEFEF"/>
<stop offset="0.6536" stop-color="#C2C2C2"/>
<stop offset="0.8732" stop-color="#A6A5A5"/>
<stop offset="1" stop-color="#9C9B9B"/>
</radialGradient>
</defs>
</svg>
