<svg width="717" height="490" viewBox="0 0 717 490" fill="none" xmlns="http://www.w3.org/2000/svg">
<g opacity="0.3">
<path opacity="0.3" d="M716.674 474.954C716.674 483.253 556.24 490 358.337 490C160.434 490 0 483.273 0 474.954C0 472.335 15.968 469.883 44.0273 467.724H672.626C700.706 469.883 716.674 472.335 716.674 474.954Z" fill="#1B3654"/>
</g>
<path d="M635.43 277.093C635.43 309.93 629.71 341.426 619.232 370.638C606.135 407.163 585.599 440.126 559.425 467.724H157.249C148.322 458.316 140.066 448.278 132.522 437.695C100.23 392.39 81.2441 336.963 81.2441 277.093C81.2441 200.585 112.258 131.307 162.404 81.1604C212.551 31.0141 281.829 0.000183105 358.337 0.000183105C434.845 0.000183105 504.124 31.0141 554.27 81.1604C604.416 131.286 635.43 200.564 635.43 277.093Z" fill="#B9D0F4"/>
<g opacity="0.3">
<path opacity="0.3" d="M598.926 340.001C581.638 325.375 557.791 321.121 538.239 328.769C535.809 310.035 532.644 291.951 526.902 275.228V152.199C526.902 138.955 516.131 128.184 502.909 128.184H204.629C191.407 128.184 180.636 138.955 180.636 152.178V362.005C180.636 367.495 182.48 372.545 185.581 376.569H153.435C147.882 376.569 143.356 381.095 143.356 386.648V410.81C143.356 421.853 148.804 431.639 157.124 437.674H132.522C140.066 448.257 148.322 458.295 157.249 467.704H559.425C585.599 440.105 606.135 407.122 619.232 370.617C615.439 358.631 608.629 348.216 598.926 340.001ZM209.596 398.76H212.97C214.96 398.76 216.595 400.395 216.595 402.407C216.595 404.418 214.96 406.053 212.97 406.053H209.596V398.76ZM260.517 419.129C253.665 419.129 248.091 424.703 248.091 431.555C248.091 433.798 248.699 435.893 249.746 437.695H195.849C200.627 434.259 204.483 429.544 206.914 423.928H212.97C224.851 423.928 234.491 414.267 234.491 402.386C234.491 395.848 231.557 389.98 226.947 386.04H307.038L313.912 419.129H260.517ZM452.846 437.695C453.119 437.381 453.37 437.025 453.601 436.69C453.831 437.046 454.082 437.381 454.355 437.695H452.846Z" fill="#1B3654"/>
</g>
<path d="M35.2891 466.635C48.7424 464.937 62.2167 464.539 75.6701 464.33C82.3968 464.225 89.1235 464.183 95.8711 464.225C102.598 464.225 109.324 464.288 116.072 464.351C129.525 464.455 143 464.476 156.453 464.455H196.834H358.337H519.862H600.624H620.825L630.925 464.372L641.026 464.246C647.752 464.183 654.479 464.267 661.227 464.581C667.953 464.916 674.68 465.419 681.428 466.656C682.035 466.761 682.434 467.347 682.308 467.934C682.224 468.395 681.847 468.751 681.428 468.814C674.701 470.051 667.974 470.553 661.227 470.889C654.5 471.182 647.773 471.287 641.026 471.224L630.925 471.098L620.825 471.015H600.624H519.862H358.337H196.813H156.432C142.979 470.994 129.505 471.015 116.051 471.119C109.324 471.182 102.598 471.245 95.8502 471.245C89.1235 471.266 82.3968 471.245 75.6492 471.14C62.1958 470.931 48.7215 470.533 35.2681 468.835C34.6604 468.751 34.2413 468.206 34.3251 467.62C34.388 467.096 34.7861 466.698 35.2891 466.635Z" fill="#1B3654"/>
<path d="M198.93 131.349H443.731H470.449C481.974 131.349 491.32 140.695 491.32 152.221V362.026C491.32 373.552 481.974 382.898 470.449 382.898H443.731H198.93" fill="#CBD0D8"/>
<path d="M470.47 383.4H198.93V382.436H470.47C481.702 382.436 490.859 373.3 490.859 362.047V152.22C490.859 140.988 481.723 131.831 470.47 131.831H198.93V130.867H470.47C482.247 130.867 491.823 140.443 491.823 152.22V362.026C491.844 373.823 482.247 383.4 470.47 383.4Z" fill="#1B3654"/>
<g opacity="0.3">
<path opacity="0.3" d="M491.802 152.22V362.026C491.802 373.551 482.456 382.897 470.93 382.897H451.358C462.883 382.897 472.229 373.551 472.229 362.026V152.22C472.229 140.695 462.883 131.349 451.358 131.349H470.93C482.456 131.349 491.802 140.695 491.802 152.22Z" fill="#1B3654"/>
</g>
<path d="M360.161 422.252L351.967 382.919H331.829L341.427 422.252H360.161Z" fill="#CBD0D8"/>
<path d="M360.747 422.754H341.028L331.2 382.436H352.365L360.747 422.754ZM341.803 421.769H359.552L351.568 383.4H332.436L341.803 421.769Z" fill="#1B3654"/>
<g opacity="0.3">
<path opacity="0.3" d="M360.16 422.251L351.967 382.918H331.829L341.426 422.251H360.16Z" fill="#1B3654"/>
</g>
<path d="M340.023 422.252H285.35L280.635 399.62L277.157 382.919H331.829L335.308 399.62L340.023 422.252Z" fill="#CBD0D8"/>
<path d="M340.609 422.754H284.93L276.548 382.436H332.206L340.609 422.754ZM285.748 421.769H339.414L331.43 383.4H277.764L285.748 421.769Z" fill="#1B3654"/>
<path d="M443.752 382.919H172.212C160.686 382.919 151.34 373.573 151.34 362.047V152.221C151.34 140.695 160.686 131.349 172.212 131.349H443.752C455.277 131.349 464.623 140.695 464.623 152.221V362.047C464.623 373.573 455.277 382.919 443.752 382.919Z" fill="#CBD0D8"/>
<path d="M443.751 383.4H172.211C160.435 383.4 150.858 373.823 150.858 362.047V152.22C150.858 140.443 160.435 130.867 172.211 130.867H443.751C455.528 130.867 465.105 140.443 465.105 152.22V362.047C465.105 373.823 455.528 383.4 443.751 383.4ZM172.211 131.851C160.979 131.851 151.822 140.988 151.822 152.241V362.067C151.822 373.3 160.958 382.457 172.211 382.457H443.751C454.984 382.457 464.141 373.32 464.141 362.067V152.22C464.141 140.988 455.004 131.831 443.751 131.831H172.211V131.851Z" fill="#1B3654"/>
<g opacity="0.3">
<path opacity="0.3" d="M335.308 399.62H280.635L277.156 382.918H331.829L335.308 399.62Z" fill="#1B3654"/>
</g>
<g opacity="0.3">
<path opacity="0.3" d="M464.602 353.329V362.026C464.602 373.551 455.256 382.897 443.73 382.897H172.211C160.686 382.897 151.34 373.551 151.34 362.026V353.329C151.34 364.854 160.686 374.201 172.211 374.201H443.751C455.277 374.201 464.602 364.854 464.602 353.329Z" fill="#1B3654"/>
</g>
<g opacity="0.6">
<path opacity="0.6" d="M460.851 140.276C457.729 138.411 454.082 137.321 450.164 137.321H178.624C167.098 137.321 157.752 146.667 157.752 158.192V367.998C157.752 372.44 159.156 376.569 161.524 379.963C155.426 376.317 151.34 369.653 151.34 362.026V152.22C151.34 140.695 160.686 131.349 172.211 131.349H443.751C450.834 131.349 457.079 134.89 460.851 140.276Z" fill="white"/>
</g>
<path d="M443.752 386.04H172.212C158.968 386.04 148.218 375.269 148.218 362.025V152.22C148.218 138.976 158.989 128.226 172.212 128.226H443.752C456.995 128.226 467.746 138.997 467.746 152.22V362.046C467.746 375.269 456.974 386.04 443.752 386.04ZM172.212 134.492C162.426 134.492 154.483 142.455 154.483 152.22V362.046C154.483 371.833 162.446 379.775 172.212 379.775H443.752C453.538 379.775 461.48 371.812 461.48 362.046V152.22C461.48 142.434 453.517 134.492 443.752 134.492H172.212Z" fill="#1B3654"/>
<path d="M470.469 386.04H198.929C197.19 386.04 195.786 384.636 195.786 382.897C195.786 381.158 197.19 379.754 198.929 379.754H470.469C480.256 379.754 488.219 371.791 488.219 362.005V152.22C488.219 142.434 480.256 134.471 470.469 134.471H198.929C197.19 134.471 195.786 133.067 195.786 131.328C195.786 129.588 197.19 128.184 198.929 128.184H470.469C483.713 128.184 494.484 138.955 494.484 152.199V362.005C494.484 375.269 483.713 386.04 470.469 386.04Z" fill="#1B3654"/>
<path d="M445.365 162.048V330.089C445.365 335.768 440.754 340.379 435.076 340.379H180.866C175.187 340.379 170.577 335.768 170.577 330.089V162.048C170.577 156.369 175.187 151.759 180.866 151.759H435.076C440.775 151.759 445.365 156.369 445.365 162.048Z" fill="#1B3654"/>
<path d="M428 321L428 255" stroke="#FBFBFB" stroke-width="6" stroke-linecap="round"/>
<path d="M428 243L428 230" stroke="#FBFBFB" stroke-width="6" stroke-linecap="round"/>
<path d="M209 182H250" stroke="#FBFBFB" stroke-width="6" stroke-linecap="round"/>
<path d="M281 182H376" stroke="#FBFBFB" stroke-width="6" stroke-linecap="round"/>
<path fill-rule="evenodd" clip-rule="evenodd" d="M380.425 163.759L396.923 180.257C397.935 181.269 397.935 182.911 396.923 183.923L380.425 200.421C379.413 201.433 377.772 201.433 376.759 200.421C375.747 199.408 375.747 197.767 376.759 196.755L391.424 182.09L376.759 167.425C375.747 166.413 375.747 164.772 376.759 163.759C377.772 162.747 379.413 162.747 380.425 163.759Z" fill="#FBFBFB"/>
<path d="M258 171L268 188.321" stroke="#FBFBFB" stroke-width="6" stroke-linecap="round"/>
<path d="M193 182H195" stroke="#FBFBFB" stroke-width="6" stroke-linecap="round"/>
<path d="M209 214H250" stroke="#FBFBFB" stroke-width="6" stroke-linecap="round"/>
<path d="M281 214H322" stroke="#FBFBFB" stroke-width="6" stroke-linecap="round"/>
<path fill-rule="evenodd" clip-rule="evenodd" d="M326.425 195.759L342.923 212.257C343.935 213.269 343.935 214.911 342.923 215.923L326.425 232.421C325.413 233.433 323.772 233.433 322.759 232.421C321.747 231.408 321.747 229.767 322.759 228.755L337.424 214.09L322.759 199.425C321.747 198.413 321.747 196.772 322.759 195.759C323.772 194.747 325.413 194.747 326.425 195.759Z" fill="#FBFBFB"/>
<path d="M258 203L268 220.321" stroke="#FBFBFB" stroke-width="6" stroke-linecap="round"/>
<path d="M193 214H195" stroke="#FBFBFB" stroke-width="6" stroke-linecap="round"/>
<g opacity="0.6">
<path opacity="0.6" d="M453.119 168.922V336.963C453.119 342.642 448.508 347.252 442.83 347.252H188.62C184.072 347.252 180.196 344.297 178.854 340.19C179.504 340.316 180.175 340.379 180.866 340.379H435.076C440.776 340.379 445.365 335.768 445.365 330.089V162.048C445.365 160.917 445.177 159.827 444.841 158.821C449.556 159.743 453.119 163.913 453.119 168.922Z" fill="white"/>
</g>
<g opacity="0.35">
<path opacity="0.35" d="M333.756 340.379H283.065L206.369 162.824H257.06L333.756 340.379Z" fill="white"/>
</g>
<g opacity="0.35">
<path opacity="0.35" d="M390.776 340.379H359.113L282.416 162.824H314.059L390.776 340.379Z" fill="white"/>
</g>
<g opacity="0.3">
<path opacity="0.3" d="M445.365 162.048V162.824H194.969C189.29 162.824 184.68 167.434 184.68 173.113V340.379H180.866C175.187 340.379 170.577 335.768 170.577 330.089V162.048C170.577 156.369 175.187 151.759 180.866 151.759H435.076C440.775 151.759 445.365 156.369 445.365 162.048Z" fill="#1B3654"/>
</g>
<path d="M435.076 343.501H180.866C173.469 343.501 167.434 337.487 167.434 330.069V162.027C167.434 154.63 173.448 148.595 180.866 148.595H435.076C442.473 148.595 448.508 154.609 448.508 162.027V330.069C448.508 337.487 442.473 343.501 435.076 343.501ZM180.866 154.881C176.926 154.881 173.699 158.088 173.699 162.048V330.09C173.699 334.029 176.905 337.256 180.866 337.256H435.076C439.015 337.256 442.243 334.05 442.243 330.09V162.048C442.243 158.109 439.036 154.881 435.076 154.881H180.866V154.881Z" fill="#1B3654"/>
<path d="M295.094 371.917C300.533 371.917 304.943 367.507 304.943 362.067C304.943 356.628 300.533 352.218 295.094 352.218C289.654 352.218 285.245 356.628 285.245 362.067C285.245 367.507 289.654 371.917 295.094 371.917Z" fill="#1B3654"/>
<g opacity="0.6">
<path opacity="0.6" d="M306.955 363.325C306.955 368.752 302.554 373.174 297.106 373.174C294.759 373.174 292.579 372.357 290.903 370.953C292.181 371.56 293.606 371.896 295.094 371.896C300.542 371.896 304.943 367.495 304.943 362.046C304.943 358.966 303.539 356.221 301.318 354.419C304.65 356.011 306.955 359.406 306.955 363.325Z" fill="white"/>
</g>
<g opacity="0.3">
<path opacity="0.3" d="M285.245 362.067C285.245 365.022 286.544 367.684 288.619 369.486C285.056 367.998 282.562 364.477 282.562 360.391C282.562 354.943 286.963 350.542 292.412 350.542C294.884 350.542 297.147 351.464 298.887 352.973C297.713 352.491 296.435 352.218 295.094 352.218C289.666 352.218 285.245 356.619 285.245 362.067Z" fill="#1B3654"/>
</g>
<path d="M340.001 425.395C338.555 425.395 337.235 424.389 336.942 422.901L329.272 386.04H281.012L288.409 421.623C288.765 423.32 287.676 424.976 285.978 425.332C284.281 425.667 282.625 424.598 282.269 422.901L274.097 383.547C273.908 382.625 274.139 381.661 274.725 380.927C275.312 380.194 276.213 379.775 277.156 379.775H331.829C333.317 379.775 334.595 380.822 334.888 382.268L343.061 421.623C343.417 423.32 342.327 424.976 340.63 425.332C340.441 425.374 340.232 425.395 340.001 425.395Z" fill="#1B3654"/>
<path d="M360.16 425.395C358.715 425.395 357.394 424.389 357.101 422.901L348.928 383.547C348.572 381.849 349.662 380.194 351.359 379.838C353.057 379.481 354.712 380.571 355.068 382.268L363.241 421.623C363.597 423.32 362.507 424.976 360.81 425.332C360.58 425.374 360.37 425.395 360.16 425.395Z" fill="#1B3654"/>
<path d="M418.312 431.535C418.312 436.669 414.142 440.818 409.029 440.818H228.079C222.945 440.818 218.796 436.648 218.796 431.535C218.796 426.422 222.945 422.252 228.079 422.252H409.029C414.163 422.252 418.312 426.422 418.312 431.535Z" fill="#CBD0D8"/>
<path d="M409.028 441.321H228.079C222.693 441.321 218.313 436.941 218.313 431.555C218.313 426.17 222.693 421.769 228.079 421.769H409.028C414.414 421.769 418.794 426.149 418.794 431.534C418.794 436.941 414.414 441.321 409.028 441.321ZM228.079 422.754C223.238 422.754 219.277 426.694 219.277 431.555C219.277 436.417 223.217 440.357 228.079 440.357H409.028C413.869 440.357 417.83 436.417 417.83 431.555C417.83 426.715 413.89 422.754 409.028 422.754H228.079Z" fill="#1B3654"/>
<g opacity="0.6">
<path opacity="0.6" d="M418.311 431.535C418.311 432.582 418.144 433.567 417.829 434.51C416.593 430.822 413.114 428.182 409.028 428.182H228.078C223.992 428.182 220.513 430.822 219.298 434.51C218.984 433.588 218.816 432.582 218.816 431.556C218.816 426.442 222.965 422.272 228.099 422.272H409.049C414.162 422.251 418.311 426.421 418.311 431.535Z" fill="white"/>
</g>
<path d="M409.028 443.961H228.078C221.226 443.961 215.673 438.387 215.673 431.556C215.673 424.703 221.247 419.129 228.078 419.129H409.028C415.881 419.129 421.434 424.703 421.434 431.535C421.455 438.387 415.881 443.961 409.028 443.961ZM228.078 425.395C224.684 425.395 221.939 428.161 221.939 431.535C221.939 434.929 224.705 437.696 228.078 437.696H409.028C412.423 437.696 415.168 434.929 415.168 431.556C415.168 428.161 412.402 425.416 409.028 425.416H228.078V425.395Z" fill="#1B3654"/>
<path d="M371.287 443.961C369.548 443.961 368.144 442.557 368.144 440.818C368.144 439.079 369.548 437.675 371.287 437.675C374.682 437.675 377.427 434.908 377.427 431.535C377.427 428.14 374.661 425.374 371.287 425.374C369.548 425.374 368.144 423.97 368.144 422.23C368.144 420.491 369.548 419.087 371.287 419.087C378.14 419.087 383.693 424.661 383.693 431.493C383.693 438.387 378.119 443.961 371.287 443.961Z" fill="#1B3654"/>
<path d="M446.308 434.866L443.919 438.45L449.011 438.66L446.308 434.866Z" fill="#1B3654"/>
<path d="M521.559 440.84H629.227C636.646 440.84 642.681 446.854 642.681 454.293C642.681 461.711 636.667 467.746 629.227 467.746H523.34" fill="#BCB7DF"/>
<path d="M629.227 468.227H523.34V467.243H629.227C636.373 467.243 642.199 461.438 642.199 454.271C642.199 447.104 636.394 441.3 629.227 441.3H521.559V440.315H629.227C636.918 440.315 643.163 446.56 643.163 454.25C643.163 461.941 636.918 468.227 629.227 468.227Z" fill="#1B3654"/>
<g opacity="0.3">
<path opacity="0.3" d="M642.304 457.414C641.717 459.866 640.46 462.067 638.742 463.785C636.311 466.216 632.937 467.724 629.228 467.724H523.34L521.978 447.083H629.228C635.577 447.104 640.9 451.505 642.304 457.414Z" fill="#1B3654"/>
</g>
<path d="M529.585 467.725H87.4475C80.0293 467.725 73.9941 461.711 73.9941 454.272C73.9941 446.853 80.0083 440.818 87.4475 440.818H529.585C537.004 440.818 543.039 446.832 543.039 454.272C543.039 461.711 537.004 467.725 529.585 467.725Z" fill="#BCB7DF"/>
<path d="M529.585 468.227H87.4471C79.7564 468.227 73.5117 461.983 73.5117 454.292C73.5117 446.602 79.7564 440.357 87.4471 440.357H529.585C537.275 440.357 543.52 446.602 543.52 454.292C543.52 461.983 537.275 468.227 529.585 468.227ZM87.4471 441.321C80.3013 441.321 74.4757 447.125 74.4757 454.292C74.4757 461.459 80.2803 467.263 87.4471 467.263H529.585C536.731 467.263 542.556 461.459 542.556 454.292C542.556 447.125 536.752 441.321 529.585 441.321H87.4471Z" fill="#1B3654"/>
<g opacity="0.6">
<path opacity="0.6" d="M543.038 454.669C543.038 454.858 543.038 455.047 543.017 455.235C540.985 450.416 536.207 447.021 530.633 447.021H88.4948C84.7857 447.021 81.4119 448.53 78.981 450.96C76.676 453.265 75.2091 456.409 75.0624 459.908C74.3709 458.295 73.9937 456.535 73.9937 454.669C73.9937 450.96 75.5025 447.587 77.9333 445.156C80.3641 442.725 83.7379 441.216 87.447 441.216H529.564C537.003 441.216 543.038 447.251 543.038 454.669Z" fill="white"/>
</g>
<path d="M529.585 470.868H87.4468C78.3103 470.868 70.8711 463.429 70.8711 454.292C70.8711 445.156 78.3103 437.716 87.4468 437.716H529.585C538.721 437.716 546.16 445.156 546.16 454.292C546.16 463.429 538.721 470.868 529.585 470.868ZM87.4468 443.961C81.7679 443.961 77.1367 448.592 77.1367 454.271C77.1367 459.95 81.7679 464.581 87.4468 464.581H529.585C535.264 464.581 539.895 459.95 539.895 454.271C539.895 448.592 535.264 443.961 529.585 443.961H87.4468Z" fill="#1B3654"/>
<path d="M629.228 470.868H523.34C521.601 470.868 520.197 469.464 520.197 467.725C520.197 465.985 521.601 464.581 523.34 464.581H629.228C634.907 464.581 639.538 459.95 639.538 454.271C639.538 448.592 634.907 443.961 629.228 443.961H521.559C519.82 443.961 518.416 442.557 518.416 440.818C518.416 439.079 519.82 437.675 521.559 437.675H629.228C638.364 437.675 645.803 445.114 645.803 454.25C645.803 463.387 638.364 470.868 629.228 470.868Z" fill="#1B3654"/>
<path d="M593.96 452.302C591.488 455.194 588.491 457.562 585.914 460.349C585.683 460.6 585.453 460.852 585.243 461.103C582.959 463.744 581.115 466.866 580.863 470.324C580.612 473.823 582.016 477.427 581.136 480.822C579.962 485.244 574.744 487.905 570.281 486.899C565.817 485.873 562.402 481.807 561.459 477.323C560.516 472.838 561.731 468.081 564.057 464.142C566.383 460.181 569.715 456.933 573.236 453.999C573.361 453.895 573.487 453.769 573.634 453.664C576.463 451.317 579.417 449.096 581.89 446.393C582.225 446.036 582.54 445.659 582.854 445.282C585.557 441.95 587.799 437.906 587.946 433.61C588.323 422.294 577.762 420.052 573.969 421.393L576.19 405.697C585.934 407.038 594.715 413.828 598.55 422.86C598.675 423.153 598.78 423.446 598.906 423.74C602.489 433.191 600.519 444.569 593.96 452.302Z" fill="#D1D3D4"/>
<path d="M572.229 487.59C571.538 487.59 570.846 487.506 570.155 487.36C565.712 486.354 562.003 482.351 560.955 477.427C560.054 473.152 560.997 468.332 563.595 463.89C566.152 459.531 569.903 456.115 572.9 453.622L573.298 453.286C573.864 452.825 574.429 452.364 574.995 451.903C577.237 450.08 579.543 448.215 581.491 446.078L581.638 445.931C581.911 445.617 582.183 445.302 582.455 444.988C585.641 441.069 587.317 437.234 587.443 433.609C587.631 428.224 585.221 425.29 583.189 423.802C579.941 421.413 575.938 421.246 574.115 421.874L573.361 422.147L575.771 405.173L576.253 405.236C586.143 406.598 595.07 413.45 598.989 422.691L599.031 422.796C599.136 423.048 599.241 423.299 599.324 423.551C602.992 433.169 601.001 444.862 594.337 452.658C592.933 454.292 591.361 455.78 589.832 457.226C588.637 458.357 587.401 459.51 586.269 460.725C586.06 460.956 585.829 461.207 585.62 461.459C583 464.476 581.554 467.494 581.345 470.386C581.24 471.811 581.429 473.299 581.617 474.745C581.869 476.798 582.141 478.915 581.596 480.989C580.548 484.824 576.462 487.59 572.229 487.59ZM582.057 446.874C580.087 448.99 577.824 450.855 575.603 452.637C575.037 453.098 574.471 453.559 573.906 454.02L573.507 454.355C570.574 456.786 566.906 460.139 564.434 464.372C561.94 468.605 561.039 473.173 561.898 477.217C562.883 481.786 566.278 485.474 570.364 486.417C574.765 487.423 579.563 484.74 580.653 480.696C581.156 478.81 580.905 476.882 580.653 474.828C580.465 473.341 580.276 471.811 580.381 470.281C580.611 467.159 582.12 463.973 584.886 460.788C585.096 460.537 585.326 460.285 585.557 460.034C586.709 458.798 587.946 457.624 589.161 456.492C590.67 455.067 592.241 453.601 593.604 452.008C600.037 444.464 601.965 433.169 598.423 423.907C598.298 423.593 598.193 423.32 598.088 423.048L598.046 422.943C594.295 414.204 585.913 407.687 576.588 406.22L574.534 420.701C576.965 420.198 580.758 420.764 583.755 422.964C585.997 424.598 588.616 427.784 588.407 433.588C588.281 437.444 586.521 441.467 583.21 445.554C582.937 445.889 582.644 446.224 582.351 446.56V446.853L582.057 446.874Z" fill="#1B3654"/>
<path d="M581.114 480.801C579.941 485.222 574.723 487.884 570.259 486.878C565.796 485.851 562.38 481.786 561.437 477.301C560.494 472.817 561.71 468.06 564.036 464.12C566.362 460.16 569.693 456.911 573.214 453.978C573.34 453.873 573.465 453.747 573.612 453.642C578.222 454.292 582.33 457.037 585.263 461.082C582.979 463.722 581.135 466.844 580.884 470.302C580.59 473.823 581.994 477.406 581.114 480.801Z" fill="white"/>
<g opacity="0.3">
<path opacity="0.3" d="M581.847 446.371C582.183 446.015 582.497 445.638 582.811 445.26C585.515 441.928 587.757 437.884 587.904 433.588C588.281 422.272 577.719 420.03 573.926 421.371L576.148 405.676C585.892 407.017 594.672 413.806 598.507 422.838C598.528 423.173 598.863 436.962 581.847 446.371Z" fill="#1B3654"/>
</g>
<path d="M572.271 489.791C571.39 489.791 570.531 489.707 569.651 489.497C564.391 488.303 560.012 483.63 558.796 477.867C557.769 473.047 558.796 467.683 561.688 462.758C564.412 458.106 568.352 454.523 571.474 451.924C572.166 451.337 572.878 450.751 573.591 450.185C576.231 448.047 578.725 446.015 580.716 443.563C583.586 440.022 585.095 436.627 585.2 433.504C585.326 429.942 584.194 427.26 581.826 425.541C579.165 423.593 575.917 423.53 574.785 423.928C573.381 424.431 571.851 423.676 571.369 422.293C570.867 420.889 571.621 419.36 573.004 418.878C575.959 417.83 581.03 418.312 585.011 421.246C587.673 423.194 590.795 426.945 590.565 433.714C590.418 438.052 588.511 442.515 584.865 446.979C582.518 449.871 579.689 452.155 576.944 454.376C576.252 454.942 575.561 455.508 574.869 456.073C572.082 458.399 568.582 461.585 566.277 465.503C564.056 469.275 563.26 473.278 563.993 476.777C564.789 480.465 567.577 483.567 570.783 484.279C574.031 485.013 577.677 483.043 578.452 480.13C578.851 478.663 578.62 476.924 578.39 475.101C578.18 473.508 577.97 471.874 578.096 470.114C578.369 466.258 580.317 462.36 583.859 458.525C585.053 457.226 586.332 456.032 587.568 454.858C589.098 453.412 590.544 452.05 591.822 450.562C597.731 443.605 599.533 433.211 596.264 424.682C593.016 416.153 584.739 409.573 575.686 408.337C574.219 408.128 573.193 406.786 573.381 405.32C573.57 403.853 574.932 402.826 576.399 403.014C587.505 404.544 597.249 412.298 601.252 422.754C605.254 433.232 603.138 445.512 595.866 454.041C594.399 455.78 592.765 457.31 591.193 458.777C589.978 459.929 588.825 461.019 587.736 462.171C585.032 465.084 583.586 467.892 583.398 470.491C583.314 471.706 583.482 473.005 583.649 474.409C583.922 476.568 584.236 479.02 583.566 481.492C582.392 486.396 577.488 489.791 572.271 489.791Z" fill="#1B3654"/>
<path d="M587.108 405.634C586.395 411.963 585.012 418.648 582.917 425.668C580.235 434.574 571.454 440.714 561.459 440.714H474.221L502.993 332.961C539.476 314.96 594.128 343.879 587.108 405.634Z" fill="#D1D3D4"/>
<path d="M561.458 441.216H473.592L502.573 332.646L502.762 332.541C520.511 323.782 543.227 326.045 560.682 338.304C581.03 352.596 590.837 377.155 587.589 405.697C586.856 412.193 585.431 418.961 583.377 425.814C580.653 434.867 571.642 441.216 561.458 441.216ZM474.849 440.231H561.458C571.202 440.231 579.836 434.175 582.434 425.52C584.488 418.71 585.892 412.004 586.604 405.571C589.811 377.407 580.15 353.182 560.117 339.1C543.017 327.093 520.783 324.83 503.39 333.317L474.849 440.231Z" fill="#1B3654"/>
<g opacity="0.6">
<path opacity="0.6" d="M582.916 425.667C582.246 427.909 581.198 429.963 579.836 431.807C579.962 431.472 580.066 431.136 580.171 430.78C602.51 356.41 542.074 319.193 501.819 337.34L502.992 332.981C543.206 313.116 605.548 350.311 582.916 425.667Z" fill="white"/>
</g>
<path d="M529.899 418.123L536.521 418.563C536.521 418.563 545.218 425.856 534.132 441.216L520.909 440.168C510.956 431.807 518.227 418.92 529.899 418.123Z" fill="white"/>
<path d="M534.153 417.809C516.802 412.947 510.788 432.226 519.966 441.216H478.558C496.224 438.073 493.646 415.064 482.435 411.857L494.673 402.386C515.838 385.286 533.252 398.174 534.069 417.39L534.153 417.809Z" fill="white"/>
<path d="M561.458 443.395H474.22C472.733 443.395 471.538 442.201 471.538 440.713C471.538 439.225 472.733 438.031 474.22 438.031H561.458C570.238 438.031 578.013 432.624 580.339 424.892C590.397 391.363 584.09 361.921 563.029 344.109C546.16 329.838 522.502 326.318 504.166 335.37C502.845 336.02 501.232 335.475 500.561 334.155C499.912 332.835 500.457 331.221 501.777 330.551C521.999 320.576 547.983 324.369 566.487 340.001C589.266 359.259 596.181 390.776 585.473 426.421C582.476 436.438 572.606 443.395 561.458 443.395Z" fill="#1B3654"/>
<g opacity="0.6">
<path opacity="0.6" d="M565.984 372.65L565.523 373.027C562.359 375.751 558.231 376.946 554.06 376.799C545.113 376.485 534.907 391.154 538.868 419.003L534.174 417.893C527.552 383.337 541.445 370.24 557.141 370.89C561.751 371.791 565.67 372.566 565.963 372.629C565.963 372.65 565.984 372.65 565.984 372.65Z" fill="white"/>
</g>
<path d="M534.216 420.826C533.001 420.826 531.89 419.967 531.596 418.731C531.555 418.605 531.534 418.458 531.513 418.312C526.986 394.653 532.246 382.457 537.443 376.401C542.284 370.785 549.304 367.851 557.225 368.186C560.368 368.312 563.575 368.941 566.76 370.051C566.802 370.072 566.844 370.072 566.865 370.093C567.179 370.198 567.472 370.303 567.787 370.429C569.17 370.952 569.882 372.482 569.379 373.886C568.876 375.29 567.326 375.982 565.922 375.479C565.67 375.395 565.419 375.29 565.167 375.206C565.167 375.206 565.167 375.206 565.146 375.206C562.359 374.221 559.635 373.698 557.016 373.593C552.594 373.425 546.328 374.368 541.508 379.942C537.066 385.097 532.644 395.785 536.793 417.411C536.793 417.432 536.814 417.557 536.814 417.557C537.15 419.003 536.249 420.428 534.803 420.763C534.614 420.805 534.425 420.826 534.216 420.826Z" fill="#1B3654"/>
<path d="M528.306 443.395H525.959C521.768 443.395 517.912 441.425 515.398 437.968C512.862 434.468 512.15 430.11 513.47 426.023C515.712 419.087 523.088 412.8 537.129 415.923C540.586 416.698 543.981 417.096 547.229 417.096C548.717 417.096 549.911 418.291 549.911 419.779C549.911 421.266 548.717 422.461 547.229 422.461C543.604 422.461 539.811 422.021 535.976 421.162C527.049 419.171 520.553 421.602 518.583 427.658C517.787 430.11 518.227 432.708 519.735 434.804C521.223 436.857 523.486 438.031 525.959 438.031H528.306C529.794 438.031 530.989 439.225 530.989 440.713C530.989 442.201 529.773 443.395 528.306 443.395Z" fill="#1B3654"/>
<path d="M509.698 366.972C509.698 382.185 503.747 394.549 493.626 403.937C492.389 405.09 491.09 406.179 489.749 407.248C484.594 411.271 478.601 414.645 471.937 417.39C460.872 421.917 447.964 424.662 434.028 425.542C430.696 425.752 427.302 425.856 423.886 425.856C402.847 425.856 383.589 421.875 368.669 414.058C364.813 412.047 361.25 409.763 358.023 407.248C356.452 406.012 354.943 404.733 353.539 403.371C349.452 399.473 346.079 395.052 343.522 390.169C340.002 383.38 338.053 375.647 338.053 366.993C338.053 359.176 339.687 351.528 342.663 344.277C343.271 338.954 343.899 333.694 344.591 328.477C347.043 309.742 350.228 291.784 356.012 275.229C359.05 266.553 369.507 263.117 377.03 268.376C387.843 275.941 398.299 286.587 404.314 295.472L403.601 296.038C407.164 295.22 410.81 294.613 414.519 294.194C418.019 293.816 421.539 293.607 425.143 293.607C431.619 293.607 437.884 294.256 443.898 295.472C449.913 286.587 460.369 275.941 471.182 268.376C478.726 263.117 489.162 266.553 492.201 275.229C494.589 282.039 496.538 289.08 498.152 296.331C501.63 311.733 503.684 328.016 505.612 344.759L505.486 344.654C506.241 346.666 506.932 348.699 507.477 350.773C508.944 356.033 509.698 361.46 509.698 366.972Z" fill="#D1D3D4"/>
<path d="M423.865 426.338C402.406 426.338 383.232 422.23 368.417 414.498C364.582 412.486 361.019 410.223 357.834 407.75H357.52V407.499C356.011 406.304 354.544 405.047 353.182 403.748C348.991 399.745 345.596 395.261 343.082 390.42C339.414 383.379 337.57 375.5 337.57 367.013C337.57 359.343 339.121 351.653 342.18 344.192C342.893 337.99 343.501 333.002 344.087 328.455C346.225 312.131 349.263 293.04 355.529 275.103C357.038 270.786 360.391 267.517 364.728 266.134C369.024 264.751 373.593 265.442 377.302 268.02C387.675 275.27 398.446 285.957 404.711 295.241L404.774 295.324C407.959 294.633 411.208 294.109 414.477 293.753C424.242 292.684 434.217 293.103 443.688 294.968C449.996 285.748 460.641 275.207 470.93 268.02C474.619 265.442 479.208 264.751 483.504 266.134C487.841 267.538 491.173 270.807 492.682 275.103C494.987 281.662 496.936 288.598 498.654 296.267C502.217 312.068 504.291 328.895 506.115 344.758L506.156 345.052C506.869 346.959 507.477 348.865 507.98 350.71C509.446 356.053 510.201 361.564 510.201 367.034C510.201 381.807 504.731 394.36 493.981 404.355C492.85 405.403 491.634 406.451 490.251 407.541V407.792H489.937C484.866 411.732 478.894 415.126 472.146 417.893C461.081 422.419 448.278 425.185 434.091 426.086C430.78 426.233 427.364 426.338 423.865 426.338ZM358.484 406.996C361.606 409.406 365.106 411.648 368.878 413.618C383.546 421.287 402.574 425.353 423.865 425.353C427.322 425.353 430.738 425.248 433.986 425.038C448.068 424.137 460.767 421.413 471.748 416.929C478.391 414.204 484.279 410.872 489.266 406.996L489.455 406.849C490.88 405.717 492.137 404.649 493.29 403.58C503.851 393.794 509.216 381.472 509.216 366.971C509.216 361.585 508.483 356.179 507.037 350.898C506.492 348.928 505.842 346.875 505.046 344.821L504.417 343.166L505.004 343.648C503.223 328.162 501.148 311.816 497.69 296.435C495.972 288.786 494.044 281.913 491.76 275.375C490.356 271.352 487.234 268.313 483.189 267.014C479.187 265.715 474.912 266.364 471.475 268.774C461.186 275.962 450.52 286.544 444.317 295.723L444.128 295.995L443.814 295.932C434.342 294.025 424.347 293.585 414.581 294.654C410.935 295.052 407.268 295.681 403.727 296.498L401.631 296.98L403.664 295.366C397.419 286.272 386.899 275.878 376.757 268.774C373.32 266.364 369.045 265.736 365.043 267.014C360.998 268.313 357.876 271.372 356.472 275.396C350.227 293.25 347.21 312.298 345.072 328.56C344.486 333.107 343.878 338.136 343.144 344.339L343.103 344.465C340.064 351.841 338.534 359.427 338.534 366.992C338.534 375.311 340.357 383.044 343.941 389.938C346.413 394.695 349.745 399.096 353.853 403.014C355.257 404.355 356.745 405.634 358.295 406.849L358.484 406.996Z" fill="#1B3654"/>
<path d="M475.918 415.001C475.918 415.001 474.409 415.902 471.937 417.369C460.872 421.895 447.964 424.64 434.028 425.52C430.696 425.73 427.302 425.835 423.886 425.835C402.847 425.835 383.589 421.853 368.668 414.037C365.127 403.203 374.62 395.491 390.022 390.567C395.847 388.702 400.395 384.05 401.862 378.119C407.897 353.622 437.025 353.622 443.06 378.119C444.527 384.05 449.074 388.702 454.9 390.567C470.742 395.659 480.361 403.664 475.918 415.001Z" fill="white"/>
<g opacity="0.3">
<path opacity="0.3" d="M503.789 365.798C503.789 374.452 501.861 382.185 498.319 388.974C495.763 393.878 492.389 398.278 488.303 402.176C486.899 403.517 485.39 404.817 483.818 406.053C468.081 418.354 444.422 424.661 417.955 424.661C414.519 424.661 411.124 424.556 407.813 424.347C395.324 423.551 383.651 421.267 373.383 417.515C367.663 414.98 362.487 411.941 357.96 408.4C356.619 407.352 355.32 406.241 354.083 405.089C353.119 404.188 352.176 403.266 351.275 402.302C364.1 409.511 380.403 413.764 398.383 414.896C401.715 415.106 405.089 415.21 408.526 415.21C434.992 415.21 458.651 408.903 474.388 396.602C475.96 395.366 477.469 394.087 478.873 392.725C482.959 388.828 486.333 384.427 488.889 379.523C492.431 372.734 494.359 365.001 494.359 356.347C494.359 348.53 492.724 340.882 489.749 333.631C489.141 328.308 488.512 323.049 487.842 317.831C485.516 300.039 482.519 282.94 477.259 267.077C478.412 266.972 479.564 267.014 480.696 267.181C482.98 268.795 485.369 270.534 486.48 273.405C492.305 288.724 495.511 308.61 497.984 327.344C498.655 332.541 499.346 337.738 499.954 343.061C502.909 350.353 503.789 357.981 503.789 365.798Z" fill="#1B3654"/>
</g>
<g opacity="0.6">
<path opacity="0.6" d="M376.883 268.355C377.805 269.005 378.706 269.654 379.628 270.346C372.356 266.846 363.346 270.409 360.579 278.351C353.119 299.641 349.997 323.279 347.168 347.881L347.294 347.776C344.57 354.901 343.103 362.424 343.103 370.093C343.103 385.307 349.054 397.671 359.175 407.038C360.412 408.19 361.711 409.28 363.052 410.349C363.597 410.789 364.163 411.208 364.729 411.606C362.486 410.223 360.328 408.756 358.337 407.205C356.996 406.158 355.697 405.047 354.46 403.895C344.339 394.507 338.388 382.143 338.388 366.95C338.388 359.28 339.855 351.757 342.579 344.633L342.453 344.737C345.282 320.136 348.404 296.498 355.864 275.207C358.903 266.532 369.36 263.095 376.883 268.355Z" fill="white"/>
</g>
<g opacity="0.6">
<path opacity="0.6" d="M487.926 270.031C483.797 268.355 478.894 268.669 474.828 271.498C465.252 278.183 455.948 287.299 449.766 295.471C448.362 297.336 446.015 298.216 443.71 297.839C443.689 297.839 443.689 297.839 443.668 297.839C443.312 297.189 442.934 296.477 442.557 295.806C442.871 295.869 443.207 295.953 443.542 296.016L442.83 295.45C448.844 286.565 459.301 275.92 470.114 268.376C475.897 264.332 483.378 265.4 487.926 270.031Z" fill="white"/>
</g>
<path d="M359.511 318.544C359.847 306.159 362.173 294.256 363.828 287.194C364.478 284.386 368.082 283.569 369.863 285.811C373.237 290.023 377.952 296.31 381.577 302.974" fill="#BCB7DF"/>
<path d="M359.993 318.543L359.008 318.522C359.343 306.389 361.543 294.738 363.325 287.068C363.681 285.58 364.812 284.47 366.279 284.113C367.767 283.778 369.276 284.302 370.219 285.475C373.551 289.625 378.308 295.974 381.975 302.701L381.116 303.162C377.47 296.498 372.755 290.191 369.444 286.083C368.71 285.182 367.621 284.784 366.489 285.056C365.357 285.308 364.519 286.146 364.268 287.278C362.507 294.926 360.328 306.515 359.993 318.543Z" fill="#1B3654"/>
<path d="M465.483 302.974C469.108 296.331 473.823 290.023 477.197 285.811C478.999 283.569 482.582 284.386 483.232 287.194C484.888 294.256 487.214 306.159 487.549 318.523" fill="#BCB7DF"/>
<path d="M487.548 318.543H487.066C486.731 306.515 484.551 294.926 482.77 287.32C482.498 286.188 481.681 285.35 480.549 285.098C479.417 284.847 478.307 285.224 477.594 286.125C474.283 290.232 469.568 296.54 465.922 303.204L465.063 302.743C468.73 296.016 473.487 289.667 476.819 285.517C477.762 284.344 479.271 283.799 480.758 284.155C482.246 284.491 483.378 285.622 483.713 287.11C485.494 294.759 487.716 306.431 488.03 318.543H487.548Z" fill="#1B3654"/>
<g opacity="0.6">
<path opacity="0.6" d="M385.412 306.452L369.884 316.825C367.139 318.648 363.723 319.151 360.58 318.187L382.268 302.952C378.643 296.309 373.928 290.002 370.554 285.79C370.533 285.769 370.533 285.769 370.512 285.748C371.812 284.155 374.41 283.988 375.856 285.79C378.664 289.268 383.107 295.115 386.627 300.794C387.801 302.722 387.277 305.215 385.412 306.452Z" fill="white"/>
</g>
<g opacity="0.3">
<path opacity="0.3" d="M370.68 287.466C370.554 287.697 370.47 287.948 370.408 288.242C369.045 294.088 367.201 303.309 366.426 313.325L359.029 318.543C359.364 306.179 361.69 294.256 363.346 287.215C363.995 284.407 367.599 283.59 369.381 285.832C369.779 286.335 370.219 286.88 370.68 287.466Z" fill="#1B3654"/>
</g>
<g opacity="0.3">
<path opacity="0.3" d="M483.378 289.96C483.168 290.128 482.98 290.316 482.791 290.526C479.459 294.675 474.849 300.836 471.245 307.374L464.979 302.952C468.604 296.309 473.319 290.002 476.693 285.79C478.495 283.548 482.079 284.365 482.728 287.173C482.938 288.053 483.147 288.975 483.378 289.96Z" fill="#1B3654"/>
</g>
<path d="M412.737 373.279C412.737 375.647 416.006 377.554 420.051 377.554C424.074 377.554 427.343 375.605 427.343 373.237C427.343 370.869 424.074 370.68 420.051 370.68C416.006 370.701 412.737 370.911 412.737 373.279Z" fill="#1B3654"/>
<path d="M404.376 375.688C404.942 377.386 405.676 378.958 406.807 379.963C407.897 381.011 409.28 381.43 410.705 381.346C412.109 381.242 413.576 380.739 414.749 379.859C415.043 379.649 415.315 379.377 415.608 379.167C415.86 378.916 416.111 378.622 416.363 378.371L417.054 377.407C417.683 376.464 418.835 375.898 419.904 375.919C420.973 375.898 422.125 376.464 422.775 377.407L423.467 378.371C423.718 378.622 423.97 378.916 424.221 379.167C424.514 379.398 424.787 379.649 425.08 379.859C426.275 380.739 427.721 381.242 429.146 381.326C430.57 381.409 431.954 380.969 433.022 379.921C434.154 378.916 434.887 377.344 435.432 375.647V375.626C435.537 375.311 435.872 375.144 436.187 375.248C436.438 375.332 436.585 375.563 436.606 375.793C436.669 377.721 436.291 379.817 435.013 381.64C434.405 382.562 433.504 383.295 432.519 383.882C432.016 384.134 431.472 384.364 430.927 384.511C430.382 384.616 429.816 384.804 429.25 384.804C426.987 384.993 424.766 384.301 422.901 383.17C422.419 382.897 422 382.52 421.56 382.185C421.141 381.807 420.763 381.409 420.365 381.011L419.422 379.754C419.548 379.921 419.758 380.026 419.925 380.026C420.093 380.026 420.302 379.921 420.428 379.754L419.485 381.011C419.087 381.409 418.71 381.807 418.291 382.185C417.851 382.52 417.431 382.897 416.949 383.17C415.084 384.322 412.884 385.014 410.6 384.846C410.034 384.846 409.468 384.678 408.924 384.574C408.379 384.427 407.834 384.196 407.331 383.945C406.346 383.358 405.445 382.625 404.816 381.703C403.538 379.88 403.161 377.805 403.203 375.877C403.203 375.542 403.496 375.29 403.81 375.29C404.062 375.29 404.272 375.458 404.355 375.688H404.376Z" fill="#1B3654"/>
<path d="M457.633 381.307C466.487 381.285 473.642 372.167 473.614 360.941C473.587 349.714 466.387 340.631 457.534 340.653C448.68 340.675 441.525 349.793 441.553 361.019C441.58 372.245 448.779 381.328 457.633 381.307Z" fill="white"/>
<path d="M457.603 384.008C452.49 384.008 447.733 381.535 444.17 377.072C440.755 372.776 438.869 367.076 438.869 361.041C438.869 355.005 440.713 349.306 444.107 344.989C447.649 340.483 452.406 337.99 457.54 337.969C457.561 337.969 457.561 337.969 457.582 337.969C462.695 337.969 467.452 340.441 471.014 344.905C474.43 349.201 476.316 354.901 476.316 360.936C476.337 366.971 474.472 372.671 471.077 376.988C467.536 381.493 462.779 383.987 457.645 384.008C457.624 384.008 457.624 384.008 457.603 384.008ZM457.561 343.333H457.54C454.103 343.333 450.834 345.094 448.319 348.3C445.679 351.674 444.212 356.2 444.233 361.02C444.254 365.86 445.721 370.366 448.382 373.719C450.897 376.883 454.166 378.622 457.603 378.622H457.624C461.06 378.622 464.329 376.862 466.844 373.656C469.484 370.282 470.951 365.756 470.93 360.936C470.909 356.095 469.442 351.59 466.781 348.237C464.267 345.073 460.997 343.333 457.561 343.333Z" fill="#1B3654"/>
<path d="M455.005 379.546C462.099 379.529 467.832 372.084 467.81 362.918C467.788 353.752 462.018 346.335 454.924 346.353C447.829 346.37 442.096 353.815 442.119 362.981C442.141 372.147 447.91 379.563 455.005 379.546Z" fill="#1B3654"/>
<path d="M457.972 361.713C459.638 361.709 460.984 359.735 460.979 357.305C460.973 354.874 459.617 352.907 457.95 352.911C456.284 352.915 454.937 354.889 454.943 357.319C454.949 359.75 456.305 361.717 457.972 361.713Z" fill="white"/>
<path d="M398.415 361.012C398.443 349.786 391.288 340.668 382.434 340.646C373.581 340.624 366.381 349.708 366.354 360.934C366.326 372.16 373.481 381.278 382.335 381.3C391.189 381.321 398.388 372.238 398.415 361.012Z" fill="white"/>
<path d="M382.373 384.008C382.352 384.008 382.352 384.008 382.331 384.008C372.021 383.987 363.639 373.635 363.681 360.936C363.702 348.258 372.105 337.969 382.415 337.969C382.436 337.969 382.436 337.969 382.457 337.969C392.767 337.99 401.149 348.342 401.107 361.041C401.065 373.698 392.662 384.008 382.373 384.008ZM369.045 360.957C369.024 370.68 374.997 378.622 382.352 378.643H382.373C389.728 378.643 395.722 370.743 395.743 361.02C395.764 351.296 389.791 343.354 382.436 343.333H382.415C375.06 343.333 369.066 351.233 369.045 360.957Z" fill="#1B3654"/>
<path d="M397.855 362.974C397.877 353.808 392.144 346.363 385.05 346.346C377.955 346.329 372.186 353.745 372.163 362.911C372.141 372.077 377.874 379.522 384.969 379.539C392.063 379.556 397.832 372.14 397.855 362.974Z" fill="#1B3654"/>
<path d="M385.043 357.303C385.049 354.873 383.703 352.899 382.036 352.895C380.37 352.891 379.014 354.858 379.008 357.289C379.002 359.719 380.348 361.693 382.015 361.697C383.681 361.701 385.037 359.734 385.043 357.303Z" fill="white"/>
<path d="M429.25 383.107C429.25 385.579 428.517 387.57 427.343 389.058C423.802 393.563 416.258 393.563 412.717 389.058C411.543 387.57 410.81 385.579 410.81 383.107C414.393 382.394 417.515 381.074 420.03 378.937C422.628 381.263 425.604 382.876 429.25 383.107Z" fill="#1B3654"/>
<path d="M427.344 389.059C423.803 393.564 416.259 393.564 412.717 389.059C416.259 384.553 423.824 384.553 427.344 389.059Z" fill="#FF2C4B"/>
<path d="M420.03 392.914C416.908 392.914 414.121 391.615 412.339 389.351L412.109 389.058L412.339 388.765C414.121 386.502 416.929 385.202 420.03 385.202C423.152 385.202 425.96 386.502 427.721 388.765L427.951 389.058L427.721 389.351C425.96 391.615 423.152 392.914 420.03 392.914ZM413.345 389.058C414.938 390.902 417.348 391.95 420.03 391.95C422.712 391.95 425.101 390.902 426.715 389.058C425.122 387.214 422.712 386.166 420.03 386.166C417.369 386.166 414.959 387.214 413.345 389.058Z" fill="#1B3654"/>
<path d="M420.03 394.318C414.519 394.318 408.924 390.462 408.924 383.107H412.696C412.696 388.262 416.384 390.546 420.03 390.546C423.676 390.546 427.365 388.241 427.365 383.107H431.136C431.136 390.462 425.562 394.318 420.03 394.318Z" fill="#1B3654"/>
<path d="M487.548 320.974C486.961 320.974 486.374 320.764 485.934 320.366C479.019 314.184 471.769 309.071 464.35 305.132C463.764 304.817 463.344 304.294 463.156 303.686C462.967 303.078 463.03 302.387 463.345 301.821C467.096 294.968 471.915 288.514 475.31 284.302C476.735 282.542 478.977 281.745 481.198 282.248C483.42 282.751 485.117 284.449 485.62 286.649C487.422 294.382 489.664 306.2 490 318.48C490.021 319.444 489.476 320.345 488.596 320.765C488.24 320.89 487.883 320.974 487.548 320.974ZM468.814 302.03C474.283 305.09 479.627 308.778 484.824 313.011C484.111 303.225 482.33 294.088 480.863 287.76C480.737 287.215 480.339 287.047 480.109 287.005C479.878 286.963 479.438 286.921 479.103 287.362C476.19 290.966 472.188 296.289 468.814 302.03Z" fill="#1B3654"/>
<path d="M423.278 428.538C398.425 428.538 376.945 423.215 361.145 413.178C343.878 402.197 334.762 386.229 334.762 366.992C334.762 359.134 336.334 351.254 339.435 343.606C342.243 319.256 345.408 295.66 352.868 274.327C354.607 269.361 358.463 265.589 363.45 263.975C368.396 262.383 373.697 263.179 377.951 266.155C388.094 273.259 398.634 283.59 405.151 292.81C417.326 290.379 430.004 290.274 442.096 292.475C448.613 283.338 459.028 273.175 469.065 266.155C473.319 263.179 478.621 262.383 483.566 263.975C488.554 265.589 492.41 269.361 494.149 274.327C501.693 295.911 504.857 319.8 507.686 344.444C510.389 351.778 511.772 359.364 511.772 366.971C511.772 386.187 502.657 402.155 485.39 413.157C469.61 423.215 448.131 428.538 423.278 428.538ZM344.087 346.456C341.468 353.182 340.148 360.077 340.148 366.971C340.148 401.107 372.775 423.152 423.299 423.152C473.801 423.152 506.429 401.107 506.429 366.971C506.429 359.804 505.088 352.658 502.468 345.743C502.301 345.324 502.259 344.884 502.322 344.465C499.555 320.345 496.412 296.98 489.12 276.108C487.946 272.735 485.327 270.199 481.953 269.109C478.621 268.041 475.059 268.565 472.167 270.576C462.087 277.617 451.651 287.969 445.553 296.959C444.946 297.86 443.856 298.3 442.808 298.091C430.277 295.555 416.97 295.702 404.334 298.489C403.538 298.656 402.7 298.468 402.071 297.965C401.568 297.567 401.233 296.98 401.107 296.351C394.967 287.508 384.762 277.45 374.913 270.576C372.042 268.565 368.479 268.041 365.127 269.109C361.753 270.199 359.133 272.756 357.96 276.108C350.667 296.98 347.524 320.345 344.758 344.444C344.758 344.528 344.737 344.612 344.737 344.695C344.716 344.821 344.716 344.926 344.695 345.052C344.611 345.597 344.402 346.078 344.087 346.456Z" fill="#1B3654"/>
<path d="M359.511 320.974C359.113 320.974 358.694 320.869 358.337 320.681C357.478 320.199 356.975 319.256 357.08 318.271C357.185 317.265 359.783 293.753 361.439 286.649C361.963 284.428 363.66 282.751 365.86 282.248C368.061 281.745 370.324 282.542 371.749 284.302C375.144 288.514 379.963 294.968 383.694 301.821C384.322 302.973 383.924 304.398 382.813 305.069C375.961 309.197 368.815 314.226 361.02 320.45C360.58 320.806 360.056 320.974 359.511 320.974ZM367.202 286.963C367.118 286.963 367.034 286.984 366.95 286.984C366.72 287.026 366.321 287.215 366.196 287.739C365.085 292.475 363.492 305.425 362.591 313.032C368.082 308.841 373.258 305.237 378.287 302.114C374.913 296.33 370.89 290.966 367.956 287.341C367.705 287.047 367.432 286.963 367.202 286.963Z" fill="#1B3654"/>
<g opacity="0.2">
<path opacity="0.2" d="M431.807 302.219C442.285 303.895 450.772 307.018 456.828 311.921C458.965 313.66 458.127 317.139 455.424 317.726C443.311 320.408 433.944 317.516 428.307 307.039C427.029 304.65 429.104 301.8 431.807 302.219Z" fill="white"/>
</g>
<g opacity="0.2">
<path opacity="0.2" d="M470.05 328.811C472.02 327.344 471.957 323.95 469.925 321.246C467.892 318.543 464.665 317.558 462.695 319.046C460.725 320.534 462.003 322.986 464.036 325.689C466.048 328.392 468.08 330.299 470.05 328.811Z" fill="white"/>
</g>
<path d="M477.364 440.714H433.861C426.841 440.714 421.162 435.035 421.162 428.015C421.162 421.539 426.024 416.112 432.457 415.399L475.709 411.062C484.531 410.077 492.243 416.971 492.243 425.835C492.243 434.071 485.579 440.714 477.364 440.714Z" fill="#D1D3D4"/>
<path d="M477.364 441.216H433.861C426.589 441.216 420.68 435.307 420.68 428.035C420.68 421.308 425.73 415.671 432.394 414.938L475.646 410.6C479.984 410.118 484.342 411.501 487.59 414.414C490.838 417.327 492.703 421.497 492.703 425.856C492.724 434.322 485.851 441.216 477.364 441.216ZM477.364 411.459C476.84 411.459 476.295 411.48 475.771 411.543L432.519 415.881C426.338 416.572 421.665 421.79 421.665 428.014C421.665 434.741 427.134 440.231 433.882 440.231H477.364C485.306 440.231 491.76 433.777 491.76 425.856C491.76 421.769 490.021 417.851 486.962 415.126C484.321 412.758 480.885 411.459 477.364 411.459Z" fill="#1B3654"/>
<path d="M421.183 428.014C421.183 435.034 426.862 440.713 433.882 440.713H441.656C447.461 440.713 452.029 435.768 451.568 429.984L451.086 423.718C450.646 418.186 445.763 414.079 440.252 414.603C440.231 414.603 440.21 414.603 440.189 414.603L432.478 415.378C429.271 415.734 426.442 417.264 424.431 419.527C422.398 421.811 421.183 424.787 421.183 428.014Z" fill="white"/>
<g opacity="0.3">
<path opacity="0.3" d="M492.242 425.835C492.242 429.942 490.587 433.672 487.884 436.354C485.201 439.037 481.471 440.713 477.364 440.713H433.861C426.84 440.713 421.162 435.034 421.162 428.014C421.162 427.197 421.245 426.38 421.392 425.625C423.613 429.292 427.637 431.744 432.247 431.744H475.75C479.858 431.744 483.567 430.089 486.27 427.385C488.533 425.122 490.063 422.168 490.482 418.857C491.614 420.91 492.242 423.299 492.242 425.835Z" fill="#1B3654"/>
</g>
<g opacity="0.6">
<path opacity="0.6" d="M492.242 425.835C492.242 426.547 492.201 427.26 492.096 427.93C490.985 420.114 483.818 414.372 475.73 415.273L432.478 419.611C429.271 419.967 426.442 421.518 424.431 423.76C422.859 425.52 421.769 427.7 421.371 430.11C421.246 429.418 421.204 428.727 421.204 427.993C421.204 424.766 422.419 421.79 424.431 419.527C426.463 417.264 429.271 415.734 432.478 415.378L475.73 411.04C484.531 410.076 492.242 416.971 492.242 425.835Z" fill="white"/>
</g>
<path d="M421.183 428.015C421.183 435.035 415.504 440.714 408.484 440.714H364.98C360.873 440.714 357.164 439.037 354.461 436.355C351.758 433.673 350.102 429.943 350.102 425.835C350.102 416.971 357.814 410.077 366.615 411.062L402.092 414.624C402.113 414.624 402.134 414.624 402.155 414.624L409.867 415.4C413.073 415.756 415.902 417.286 417.914 419.549C419.967 421.812 421.183 424.788 421.183 428.015Z" fill="#D1D3D4"/>
<path d="M408.462 441.216H364.959C360.852 441.216 356.996 439.623 354.104 436.711C351.212 433.819 349.599 429.963 349.599 425.835C349.599 421.476 351.464 417.306 354.712 414.393C357.96 411.48 362.319 410.097 366.656 410.579L409.908 414.917C413.135 415.273 416.111 416.803 418.269 419.234C420.428 421.665 421.622 424.787 421.622 428.035C421.664 435.286 415.734 441.216 408.462 441.216ZM364.98 411.459C361.459 411.459 358.023 412.759 355.382 415.126C352.344 417.851 350.584 421.769 350.584 425.856C350.584 429.711 352.071 433.316 354.796 436.04C357.52 438.764 361.124 440.252 364.959 440.252H408.462C415.189 440.252 420.679 434.762 420.679 428.035C420.679 425.038 419.569 422.147 417.578 419.883C415.566 417.641 412.821 416.216 409.824 415.902L366.572 411.564C366.049 411.48 365.504 411.459 364.98 411.459Z" fill="#1B3654"/>
<path d="M421.182 428.014C421.182 435.034 415.504 440.713 408.484 440.713H400.709C394.904 440.713 390.336 435.768 390.797 429.984L391.279 423.718C391.719 418.186 396.602 414.079 402.113 414.603C402.134 414.603 402.155 414.603 402.176 414.603L409.888 415.378C413.094 415.734 415.923 417.264 417.934 419.527C419.967 421.811 421.182 424.787 421.182 428.014Z" fill="white"/>
<g opacity="0.3">
<path opacity="0.3" d="M421.182 428.014C421.182 435.034 415.503 440.713 408.483 440.713H364.98C360.873 440.713 357.164 439.037 354.46 436.354C351.757 433.672 350.102 429.942 350.102 425.835C350.102 425.248 350.143 424.682 350.206 424.116C350.877 425.311 351.715 426.421 352.679 427.385C355.361 430.068 359.091 431.744 363.199 431.744H406.702C412.989 431.744 418.186 427.197 419.212 421.225C420.449 423.173 421.182 425.52 421.182 428.014Z" fill="#1B3654"/>
</g>
<g opacity="0.6">
<path opacity="0.6" d="M421.161 427.344C420.638 426.191 419.925 425.143 419.108 424.221C417.075 421.958 414.267 420.428 411.061 420.072L403.349 419.297C403.328 419.297 403.307 419.297 403.286 419.297L367.809 415.734C358.987 414.749 351.296 421.644 351.296 430.508C351.296 430.927 351.317 431.325 351.359 431.744C350.584 429.942 350.144 427.951 350.144 425.856C350.144 416.992 357.855 410.097 366.656 411.082L402.134 414.645C402.155 414.645 402.176 414.645 402.197 414.645L409.908 415.42C413.115 415.776 415.943 417.306 417.955 419.569C419.82 421.644 420.994 424.368 421.161 427.344Z" fill="white"/>
</g>
<path d="M477.364 443.395H433.86C425.373 443.395 418.479 436.501 418.479 428.014C418.479 420.177 424.367 413.597 432.163 412.717L475.457 408.379C480.381 407.834 485.369 409.427 489.078 412.738C492.787 416.069 494.924 420.826 494.924 425.835C494.924 435.537 487.045 443.395 477.364 443.395ZM477.364 413.66C476.924 413.66 476.463 413.681 476.023 413.743L432.729 418.081C427.678 418.647 423.865 422.922 423.865 428.035C423.865 433.567 428.349 438.052 433.881 438.052H477.364C484.09 438.052 489.56 432.582 489.56 425.856C489.56 422.398 488.072 419.087 485.494 416.761C483.252 414.749 480.339 413.66 477.364 413.66Z" fill="#1B3654"/>
<path d="M408.462 443.395H364.959C355.278 443.395 347.398 435.516 347.398 425.835C347.398 420.847 349.536 416.069 353.245 412.738C356.954 409.406 361.941 407.813 366.908 408.379L410.139 412.717C417.976 413.597 423.844 420.156 423.844 428.014C423.865 436.501 416.949 443.395 408.462 443.395ZM365.001 413.66C362.004 413.66 359.092 414.749 356.849 416.761C354.272 419.066 352.784 422.377 352.784 425.856C352.784 432.582 358.253 438.052 364.98 438.052H408.483C414.016 438.052 418.5 433.567 418.5 428.035C418.5 422.922 414.665 418.647 409.594 418.081L366.363 413.743C365.902 413.681 365.441 413.66 365.001 413.66Z" fill="#1B3654"/>
<g opacity="0.3">
<path opacity="0.3" d="M482.31 412.256C495.742 414.33 498.089 436.271 481.828 440.022L523.277 440.713C514.497 440.231 514.769 425.227 520.574 420.533L519.904 420.47C513.512 419.946 510.348 412.57 514.267 407.478C525.624 392.704 529.082 367.013 504.355 338.66L505.654 344.737C516.928 374.452 502.553 402.805 482.31 412.256Z" fill="#1B3654"/>
</g>
<g opacity="0.3">
<path opacity="0.3" d="M587.107 405.634C586.395 411.962 585.012 418.647 582.916 425.667C580.234 434.573 571.453 440.713 561.458 440.713H523.927L521.936 439.896C511.772 435.893 515.104 423.215 523.361 419.024C518.897 436.145 577.887 433.923 586.52 404.963L587.107 405.634Z" fill="#1B3654"/>
</g>
<path d="M174.035 386.67V410.831C174.035 414.331 173.427 417.684 172.337 420.785C168.23 432.457 157.103 440.818 144.048 440.818C127.493 440.818 114.061 427.386 114.061 410.831V386.67C114.061 382.835 117.162 379.733 120.997 379.733H167.099C169.99 379.733 172.442 381.494 173.49 383.987C173.846 384.826 174.035 385.727 174.035 386.67Z" fill="#BCB7DF"/>
<path d="M144.047 441.321C127.241 441.321 113.578 427.658 113.578 410.852V386.69C113.578 382.604 116.91 379.272 120.996 379.272H167.098C170.095 379.272 172.798 381.053 173.951 383.819C174.328 384.72 174.516 385.684 174.516 386.69V410.852C174.516 414.309 173.93 417.725 172.798 420.973C168.523 433.148 156.956 441.321 144.047 441.321ZM120.996 380.236C117.434 380.236 114.542 383.128 114.542 386.69V410.852C114.542 427.113 127.765 440.357 144.047 440.357C156.537 440.357 167.727 432.436 171.876 420.659C172.987 417.515 173.531 414.204 173.531 410.852V386.69C173.531 385.81 173.364 384.972 173.029 384.196C172.023 381.786 169.676 380.236 167.077 380.236H120.996Z" fill="#1B3654"/>
<g opacity="0.3">
<path opacity="0.3" d="M166.281 386.669V410.831C166.281 414.33 165.673 417.683 164.584 420.784C160.476 432.457 149.349 440.818 136.294 440.818C134.198 440.818 132.145 440.608 130.175 440.189C140.506 438.052 148.909 430.592 152.346 420.784C153.435 417.662 154.043 414.309 154.043 410.831V386.669C154.043 385.726 153.854 384.804 153.498 383.987C152.45 381.493 149.978 379.733 147.107 379.733H159.345C162.237 379.733 164.688 381.493 165.736 383.987C166.092 384.825 166.281 385.726 166.281 386.669Z" fill="#1B3654"/>
</g>
<g opacity="0.6">
<path opacity="0.6" d="M147.484 440.629C146.374 440.755 145.221 440.818 144.048 440.818C127.493 440.818 114.061 427.385 114.061 410.831V386.669C114.061 382.834 117.162 379.733 120.997 379.733H127.87C124.035 379.733 120.934 382.834 120.934 386.669V393.5C128.059 394.946 129.169 406.933 120.934 409.72V410.831C120.934 426.233 132.543 438.932 147.484 440.629Z" fill="white"/>
</g>
<path d="M144.048 443.961C125.795 443.961 110.938 429.104 110.938 410.852V386.69C110.938 381.137 115.464 376.611 121.018 376.611H167.119C171.185 376.611 174.831 379.041 176.403 382.792C176.927 384.008 177.178 385.328 177.178 386.69V410.852C177.178 414.603 176.549 418.312 175.313 421.853C170.64 435.076 158.088 443.961 144.048 443.961ZM120.997 382.876C118.901 382.876 117.183 384.574 117.183 386.669V410.831C117.183 425.646 129.232 437.675 144.027 437.675C155.405 437.675 165.59 430.466 169.362 419.737C170.367 416.866 170.87 413.869 170.87 410.81V386.648C170.87 386.145 170.766 385.621 170.577 385.181C169.969 383.756 168.607 382.834 167.057 382.834H120.997V382.876Z" fill="#1B3654"/>
<path d="M198.931 402.407C198.931 412.55 190.674 420.827 180.532 420.827H172.338C173.428 417.705 174.036 414.352 174.036 410.873V409.197H180.532C181.873 409.197 183.13 408.799 184.178 408.107C186.064 406.913 187.301 404.796 187.301 402.407C187.301 398.677 184.262 395.639 180.532 395.639H174.036V386.691C174.036 385.748 173.847 384.826 173.491 384.008H180.532C185.394 384.008 189.815 385.915 193.126 388.996C196.709 392.349 198.931 397.126 198.931 402.407Z" fill="#BCB7DF"/>
<path d="M180.531 421.287H171.646L171.877 420.638C172.987 417.494 173.532 414.183 173.532 410.831V408.672H180.51C181.726 408.672 182.899 408.316 183.884 407.666C185.707 406.514 186.797 404.544 186.797 402.386C186.797 398.928 183.989 396.099 180.51 396.099H173.532V386.669C173.532 385.789 173.364 384.951 173.029 384.175L172.736 383.505H180.51C185.33 383.505 189.919 385.328 193.44 388.639C197.233 392.201 199.412 397.21 199.412 402.407C199.433 412.821 190.946 421.287 180.531 421.287ZM173.029 420.323H180.531C190.401 420.323 198.448 412.277 198.448 402.407C198.448 397.482 196.373 392.725 192.79 389.351C189.458 386.208 185.099 384.49 180.531 384.49H174.203C174.412 385.181 174.538 385.936 174.538 386.69V395.156H180.552C184.555 395.156 187.803 398.404 187.803 402.407C187.803 404.9 186.545 407.184 184.45 408.505C183.297 409.259 181.956 409.657 180.552 409.657H174.538V410.852C174.517 414.079 174.014 417.264 173.029 420.323Z" fill="#1B3654"/>
<path d="M180.531 423.949H172.337C171.332 423.949 170.368 423.467 169.781 422.629C169.194 421.79 169.048 420.743 169.383 419.779C170.389 416.908 170.892 413.911 170.892 410.852V409.175C170.892 407.436 172.296 406.032 174.035 406.032H180.531C182.543 406.032 184.156 404.397 184.156 402.386C184.156 400.374 182.522 398.76 180.531 398.76H174.035C172.296 398.76 170.892 397.356 170.892 395.617V386.669C170.892 386.166 170.787 385.642 170.598 385.202C170.179 384.238 170.284 383.128 170.871 382.247C171.457 381.367 172.442 380.843 173.49 380.843H180.531C192.413 380.843 202.073 390.504 202.073 402.386C202.073 414.267 192.413 423.949 180.531 423.949ZM176.466 417.683H180.531C188.955 417.683 195.807 410.831 195.807 402.407C195.807 393.982 188.955 387.13 180.531 387.13H177.157V392.495H180.531C185.979 392.495 190.422 396.937 190.422 402.386C190.422 407.855 185.979 412.298 180.531 412.298H177.136C177.052 414.121 176.843 415.902 176.466 417.683Z" fill="#1B3654"/>
<g opacity="0.3">
<path opacity="0.3" d="M198.93 402.407C198.93 412.549 190.673 420.826 180.531 420.826H172.337C173.427 417.704 174.035 414.351 174.035 410.873V409.196H180.531C181.872 409.196 183.129 408.798 184.177 408.106C184.177 408.106 184.177 408.106 184.198 408.106C194.781 406.765 193.167 389.561 193.125 388.995C196.709 392.348 198.93 397.126 198.93 402.407Z" fill="#1B3654"/>
</g>
<g opacity="0.6">
<path opacity="0.6" d="M145.766 368.249C145.933 367.746 145.891 367.222 145.912 366.699C145.912 366.175 145.891 365.651 145.87 365.127C145.828 364.079 145.766 363.031 145.682 361.984L145.451 358.84L145.388 358.065L145.346 357.667L145.305 357.311C145.242 356.85 145.095 356.409 144.906 355.99C144.131 354.335 142.434 353.245 140.715 353.245H140.401L140.003 353.266L139.206 353.308L137.635 353.371L134.492 353.518L121.897 353.958L120.326 354.021L119.529 354.041C119.278 354.041 118.922 354.042 118.607 354.021C117.35 353.958 116.093 353.706 114.919 353.245C112.572 352.302 110.519 350.584 109.198 348.384C108.549 347.273 108.067 346.058 107.794 344.8C107.522 343.543 107.48 342.223 107.627 340.944C107.899 338.346 109.156 335.873 111.001 334.008C112.845 332.143 115.338 330.886 117.979 330.571C118.314 330.509 118.628 330.509 118.964 330.488L119.446 330.467H119.844L121.415 330.446L124.559 330.404L137.153 330.299L149.747 330.257L162.341 330.299L165.485 330.32H166.281H166.679C166.805 330.32 166.951 330.32 167.035 330.32C167.224 330.299 167.391 330.32 167.58 330.299C167.748 330.278 167.936 330.236 168.125 330.215C169.529 329.943 170.849 329.105 171.708 327.952C172.588 326.779 173.008 325.291 172.861 323.803C172.735 322.336 172.023 320.911 170.912 319.905C170.346 319.402 169.697 319.004 169.005 318.732C168.837 318.648 168.649 318.606 168.46 318.543L168.188 318.459L167.915 318.417C167.727 318.375 167.538 318.334 167.35 318.334C167.14 318.334 167.014 318.292 166.721 318.292L160.413 318.124C156.222 317.998 152.01 317.935 147.819 317.789L141.512 317.558L138.368 317.453L137.97 317.432L137.488 317.391C137.153 317.37 136.839 317.286 136.524 317.244C135.896 317.076 135.267 316.846 134.701 316.51C133.569 315.861 132.647 314.897 132.061 313.765C131.474 312.634 131.181 311.355 131.285 310.098C131.369 308.862 131.83 307.646 132.543 306.661C132.92 306.179 133.339 305.739 133.821 305.362C134.303 305.006 134.827 304.692 135.393 304.482C135.958 304.272 136.524 304.126 137.111 304.084C137.404 304.042 137.698 304.063 137.991 304.063L138.787 304.105C139.332 304.147 139.772 304.147 140.254 304.105C140.715 304.021 141.197 303.916 141.637 303.707C142.538 303.329 143.335 302.68 143.921 301.842C144.215 301.423 144.445 300.961 144.613 300.48C144.802 299.998 144.864 299.474 144.906 298.95C144.99 299.998 144.802 301.108 144.278 302.072C143.775 303.036 142.978 303.874 142.015 304.461C141.533 304.754 140.988 304.943 140.443 305.09C139.898 305.236 139.29 305.257 138.787 305.299L137.991 305.341C137.761 305.383 137.53 305.383 137.3 305.425C136.839 305.509 136.419 305.676 136 305.865C135.602 306.075 135.225 306.347 134.911 306.64C134.596 306.955 134.303 307.29 134.072 307.667C133.632 308.422 133.381 309.281 133.402 310.14C133.423 311.858 134.492 313.43 135.958 314.08C136.315 314.247 136.713 314.352 137.09 314.436C137.279 314.457 137.488 314.499 137.677 314.478H137.97L138.368 314.457L141.512 314.352L147.819 314.121C152.01 313.975 156.222 313.891 160.413 313.786L166.721 313.619C166.951 313.598 167.329 313.619 167.664 313.64C167.999 313.64 168.334 313.681 168.67 313.744L169.173 313.807L169.655 313.933C169.99 314.017 170.304 314.101 170.619 314.205C171.897 314.645 173.091 315.316 174.118 316.175C176.172 317.893 177.597 320.45 177.911 323.153C178.246 325.836 177.555 328.685 175.962 330.928C174.391 333.17 171.939 334.783 169.215 335.349L168.188 335.517C167.853 335.559 167.496 335.559 167.161 335.58C166.972 335.601 166.847 335.58 166.721 335.601H166.323H165.526L162.383 335.622L149.789 335.664L137.195 335.622L124.601 335.517L121.457 335.475L119.886 335.454H119.487L119.194 335.475C119.005 335.496 118.796 335.475 118.607 335.496C117.078 335.664 115.569 336.313 114.416 337.382C113.285 338.472 112.446 339.918 112.216 341.489C112.09 342.286 112.048 343.103 112.195 343.899C112.321 344.695 112.593 345.471 112.97 346.204C113.725 347.671 115.003 348.845 116.512 349.557C117.266 349.892 118.083 350.102 118.922 350.207C119.152 350.228 119.32 350.249 119.571 350.249L120.368 350.27L121.939 350.332L134.533 350.772L137.677 350.919L139.248 350.982L140.045 351.024L140.443 351.045L140.904 351.087C142.14 351.213 143.335 351.715 144.278 352.47C144.76 352.847 145.179 353.287 145.535 353.79C145.891 354.272 146.164 354.817 146.352 355.383C146.562 355.948 146.667 356.535 146.688 357.122L146.709 357.562V357.96L146.688 358.756C146.667 359.804 146.625 360.873 146.583 361.921C146.52 362.968 146.457 364.037 146.373 365.085C146.331 365.609 146.289 366.133 146.206 366.657C146.038 367.222 145.996 367.767 145.766 368.249Z" fill="white"/>
</g>
</svg>
